<svg xmlns="http://www.w3.org/2000/svg" x="0px" y="0px" width="50" height="50" viewBox="0 0 100 100">
<circle cx="78" cy="14" r="1" fill="#f1bc19"></circle><circle cx="50" cy="50" r="38" fill="#f9dbd2"></circle><circle cx="84" cy="16" r="4" fill="#f1bc19"></circle><circle cx="14" cy="26" r="2" fill="#ee3e54"></circle><circle cx="78" cy="77" r="2" fill="#fbcd59"></circle><circle cx="17" cy="78" r="4" fill="#fbcd59"></circle><circle cx="24" cy="83" r="2" fill="#ee3e54"></circle><circle cx="64.483" cy="79.517" r="2.483" fill="#fff"></circle><circle cx="15" cy="54" r="1" fill="#fff"></circle><circle cx="86" cy="31" r="1" fill="#f1bc19"></circle><circle cx="83" cy="58" r="2" fill="#fff"></circle><g><path fill="#edf7f5" d="M33.334,73.3c-0.35,0-0.634-0.285-0.634-0.634V70.04c0-2.393,1.946-4.34,4.34-4.34h26.92 c2.394,0,4.34,1.947,4.34,4.34v2.626c0,0.35-0.284,0.634-0.634,0.634H33.334z"></path><path fill="#472b29" d="M63.96,66.4c2.007,0,3.64,1.633,3.64,3.64v2.56H33.4v-2.56c0-2.007,1.633-3.64,3.64-3.64H63.96 M63.96,65H37.04C34.256,65,32,67.256,32,70.04v2.626C32,73.403,32.597,74,33.334,74h34.332C68.403,74,69,73.403,69,72.666V70.04 C69,67.256,66.744,65,63.96,65L63.96,65z"></path><path fill="#edf7f5" d="M38.682,60.3c-0.131-2.565-0.956-5.115-1.825-7.801C35.796,49.222,34.7,45.833,34.7,42 c0-3.773,1.275-10.49,9.822-13.093l0.362-0.11l0.105-0.363c0.565-1.938,2.066-4.741,6.009-7.09 c0.026-0.004,0.052-0.006,0.075-0.006c0.139,0,0.226,0.068,0.226,0.181v6.363l1.117-0.015c2.49,0,3.922,3.368,3.937,3.402 l0.053,0.128l0.099,0.099c0.041,0.041,4.175,4.183,7.873,8.625c0.49,0.589,0.494,1.433,0.008,2.006 c-1.031,1.218-2.292,2.05-3.168,2.534c-0.222,0.123-0.475,0.188-0.729,0.188l0,0c-0.413,0-0.819-0.169-1.114-0.464l-0.983-0.984 c-0.557-0.556-1.3-0.862-2.094-0.862c-0.174,0-0.349,0.015-0.522,0.046c-0.899,0.159-1.47,0.224-1.966,0.224 c-0.896,0-1.617-0.218-2.858-0.864L49.5,41.19l0.454,1.57c0.508,1.751,2.073,3.116,3.886,4.697 c3.054,2.663,6.826,5.952,8.309,12.843H38.682z"></path><path fill="#472b29" d="M50.6,22.422l0,4.752v1.415l1.415-0.015l0.197-0.004l0.205-0.003c1.985,0,3.279,2.942,3.289,2.968 l0.107,0.258l0.197,0.197c0.041,0.042,4.149,4.158,7.829,8.578c0.268,0.322,0.273,0.798,0.012,1.106 c-0.964,1.137-2.148,1.918-2.972,2.374c-0.121,0.067-0.253,0.101-0.392,0.101c-0.229,0-0.454-0.094-0.619-0.259l-0.984-0.983 c-0.688-0.688-1.607-1.067-2.588-1.067c-0.216,0-0.433,0.019-0.645,0.057c-0.845,0.149-1.397,0.213-1.844,0.213 c-0.768,0-1.408-0.198-2.536-0.785l-2.9-1.509l0.91,3.141c0.564,1.949,2.202,3.376,4.098,5.029 c2.845,2.481,6.331,5.52,7.885,11.616H39.333c-0.228-2.425-1-4.813-1.81-7.317C36.479,49.058,35.4,45.723,35.4,42 c0-3.579,1.212-9.952,9.326-12.423l0.724-0.221l0.212-0.727C46.155,26.94,47.415,24.544,50.6,22.422 M51.094,20.616 c-0.152,0-0.308,0.039-0.453,0.126c-4.246,2.531-5.77,5.604-6.322,7.495C36.34,30.667,34,36.792,34,42c0,7.417,4,13.25,4,19h25 c-2.178-12.039-11.125-14.125-12.373-18.435c1.293,0.672,2.135,0.943,3.182,0.943c0.591,0,1.248-0.086,2.087-0.235 c0.133-0.023,0.267-0.035,0.401-0.035c0.594,0,1.171,0.23,1.598,0.657l0.984,0.984c0.437,0.437,1.02,0.669,1.609,0.669 c0.366,0,0.733-0.089,1.069-0.275c0.992-0.548,2.288-1.425,3.363-2.694c0.707-0.834,0.695-2.067-0.004-2.907 C61.152,35.152,57,31,57,31s-1.583-3.833-4.583-3.833c-0.142,0-0.277,0.006-0.417,0.007l0-5.656 C52,20.994,51.564,20.616,51.094,20.616L51.094,20.616z"></path><path fill="#edf7f5" d="M37.5,65.3c-1.544,0-2.8-1.256-2.8-2.8s1.256-2.8,2.8-2.8h26c1.544,0,2.8,1.256,2.8,2.8 s-1.256,2.8-2.8,2.8H37.5z"></path><path fill="#472b29" d="M63.5,60.4c1.158,0,2.1,0.942,2.1,2.1s-0.942,2.1-2.1,2.1h-26c-1.158,0-2.1-0.942-2.1-2.1 s0.942-2.1,2.1-2.1H63.5 M63.5,59h-26c-1.933,0-3.5,1.567-3.5,3.5s1.567,3.5,3.5,3.5h26c1.933,0,3.5-1.567,3.5-3.5 S65.433,59,63.5,59L63.5,59z"></path><path fill="#edf7f5" d="M38.064,38.773c-0.48,1.512-0.62,3.306-0.168,5.414c1.375,6.417,2.875,7.458,3.917,12.125"></path><path fill="#472b29" d="M41.813,56.563c-0.114,0-0.218-0.079-0.244-0.196c-0.469-2.1-1.036-3.47-1.637-4.921 c-0.715-1.727-1.525-3.684-2.28-7.206c-0.424-1.978-0.365-3.843,0.174-5.542c0.042-0.132,0.187-0.205,0.313-0.163 c0.132,0.042,0.205,0.182,0.163,0.314c-0.513,1.616-0.566,3.394-0.162,5.286c0.745,3.478,1.513,5.329,2.254,7.12 c0.609,1.471,1.185,2.861,1.663,5.003c0.03,0.135-0.055,0.268-0.189,0.298C41.849,56.561,41.83,56.563,41.813,56.563z"></path><path fill="#edf7f5" d="M40.763,34.552c-0.657,0.629-1.293,1.38-1.819,2.264"></path><path fill="#472b29" d="M38.944,37.067c-0.044,0-0.088-0.011-0.128-0.035c-0.118-0.071-0.157-0.224-0.087-0.343 c0.49-0.826,1.116-1.606,1.86-2.317c0.101-0.095,0.259-0.092,0.354,0.008c0.096,0.1,0.092,0.258-0.008,0.354 c-0.711,0.68-1.309,1.424-1.776,2.211C39.112,37.023,39.029,37.067,38.944,37.067z"></path><path fill="#edf7f5" d="M44.854,31.896c0,0-1.347,0.496-2.878,1.634"></path><path fill="#472b29" d="M41.977,33.78c-0.076,0-0.151-0.035-0.2-0.101c-0.083-0.111-0.06-0.267,0.051-0.35 c1.543-1.146,2.885-1.647,2.94-1.668c0.135-0.048,0.273,0.019,0.321,0.148c0.048,0.13-0.019,0.273-0.147,0.321 c-0.014,0.005-1.335,0.5-2.815,1.6C42.081,33.764,42.028,33.78,41.977,33.78z"></path><g><path fill="#472b29" d="M51.958,42.708c-0.049,0-0.1-0.007-0.149-0.023c-5.2-1.625-3.959-6.959-3.945-7.013 c0.065-0.268,0.333-0.432,0.604-0.366c0.268,0.065,0.433,0.335,0.368,0.603c-0.044,0.182-1.024,4.479,3.272,5.822 c0.264,0.082,0.41,0.363,0.328,0.626C52.368,42.571,52.171,42.708,51.958,42.708z"></path></g><g><path fill="#472b29" d="M54.792,35.083c-0.132,0-0.265-0.052-0.362-0.156l-1.542-1.625c-0.19-0.2-0.183-0.517,0.019-0.707 c0.199-0.189,0.517-0.183,0.706,0.019l1.542,1.625c0.19,0.2,0.183,0.517-0.019,0.707C55.039,35.038,54.916,35.083,54.792,35.083z"></path></g><g><path fill="#472b29" d="M41.5,71h-5c-0.276,0-0.5-0.224-0.5-0.5s0.224-0.5,0.5-0.5h5c0.276,0,0.5,0.224,0.5,0.5 S41.776,71,41.5,71z"></path></g><g><path fill="#472b29" d="M64.5,71h-14c-0.276,0-0.5-0.224-0.5-0.5s0.224-0.5,0.5-0.5h14c0.276,0,0.5,0.224,0.5,0.5 S64.776,71,64.5,71z"></path></g><g><path fill="#472b29" d="M47.5,71h-3c-0.276,0-0.5-0.224-0.5-0.5s0.224-0.5,0.5-0.5h3c0.276,0,0.5,0.224,0.5,0.5 S47.776,71,47.5,71z"></path></g><g><path fill="#472b29" d="M48.949,31.104c-0.208,0-0.553-0.045-0.862-0.298c-0.397-0.325-0.605-0.879-0.618-1.645 c-0.032-2.003,1.429-3.891,1.49-3.971c0.086-0.108,0.241-0.128,0.352-0.043c0.108,0.085,0.128,0.242,0.043,0.351 c-0.015,0.018-1.414,1.831-1.385,3.654c0.01,0.608,0.154,1.033,0.43,1.262c0.29,0.241,0.637,0.186,0.651,0.183 c0.142-0.024,0.265,0.068,0.289,0.203s-0.064,0.264-0.199,0.289C49.132,31.091,49.06,31.104,48.949,31.104z"></path></g></g>
</svg>
