<svg xmlns="http://www.w3.org/2000/svg" x="0px" y="0px" width="50" height="50" viewBox="0 0 100 100">
<circle cx="78" cy="14" r="1" fill="#f1bc19"></circle><circle cx="50" cy="50" r="38" fill="#f9dbd2"></circle><circle cx="84" cy="16" r="4" fill="#f1bc19"></circle><circle cx="14" cy="26" r="2" fill="#ee3e54"></circle><circle cx="78" cy="77" r="2" fill="#fbcd59"></circle><circle cx="17" cy="78" r="4" fill="#fbcd59"></circle><circle cx="24" cy="83" r="2" fill="#ee3e54"></circle><circle cx="71.483" cy="74.517" r="2.483" fill="#fff"></circle><circle cx="16" cy="48" r="1" fill="#fff"></circle><circle cx="86" cy="31" r="1" fill="#f1bc19"></circle><circle cx="84" cy="45" r="2" fill="#fff"></circle><path fill="#78a0cf" d="M50.287,78.8c-3.188,0-6.384-0.565-9.501-1.679c-1.846-0.66-3.085-2.481-3.085-4.531V43.358 c0-2.102,1.356-3.996,3.298-4.605c3.286-1.031,6.57-1.553,9.762-1.553c3.129,0,6.258,0.502,9.301,1.492 c1.937,0.63,3.238,2.473,3.238,4.586V72.52c0,2.073-1.262,3.901-3.141,4.551C56.842,78.218,53.521,78.8,50.287,78.8z"></path><path fill="#472b29" d="M50.761,37.9L50.761,37.9c3.055,0,6.111,0.491,9.084,1.458c1.648,0.537,2.755,2.112,2.755,3.921 V72.52c0,1.774-1.073,3.337-2.67,3.89c-3.243,1.122-6.487,1.69-9.643,1.69c-3.107,0-6.224-0.551-9.266-1.639 c-1.568-0.56-2.621-2.116-2.621-3.872V43.358c0-1.8,1.154-3.419,2.807-3.937C44.425,38.412,47.64,37.9,50.761,37.9 M50.761,36.5 c-3.297,0-6.622,0.534-9.972,1.585C38.539,38.79,37,40.935,37,43.358v29.231c0,2.328,1.416,4.428,3.55,5.19 c3.224,1.153,6.47,1.72,9.737,1.72c3.345,0,6.712-0.595,10.101-1.767C62.552,76.984,64,74.873,64,72.52V43.279 c0-2.397-1.504-4.531-3.722-5.252C57.134,37.003,53.961,36.5,50.761,36.5L50.761,36.5z"></path><path fill="#472b29" d="M49.79,76.174c-0.587,0-1.171-0.022-1.75-0.067c-0.137-0.011-0.24-0.131-0.229-0.269 c0.01-0.138,0.131-0.24,0.269-0.23c1.815,0.141,3.685,0.055,5.553-0.254c0.141-0.024,0.265,0.069,0.288,0.206 c0.022,0.136-0.069,0.265-0.206,0.287C52.4,76.065,51.086,76.174,49.79,76.174z"></path><path fill="#472b29" d="M55.525,75.471c-0.113,0-0.215-0.076-0.243-0.19c-0.033-0.134,0.049-0.27,0.183-0.302 c0.803-0.197,1.607-0.437,2.389-0.713c1.453-0.514,1.896-1.204,1.896-2.952v-5.438c0-0.138,0.112-0.25,0.25-0.25 s0.25,0.112,0.25,0.25v5.438c0,1.945-0.583,2.841-2.229,3.423c-0.797,0.282-1.617,0.527-2.437,0.728 C55.564,75.469,55.544,75.471,55.525,75.471z"></path><path fill="#472b29" d="M60,63.75c-0.138,0-0.25-0.112-0.25-0.25v-4.375c0-0.138,0.112-0.25,0.25-0.25s0.25,0.112,0.25,0.25 V63.5C60.25,63.638,60.138,63.75,60,63.75z"></path><path fill="#a2b3cb" d="M42.913,73.997c-0.36,0-0.72-0.043-1.068-0.129c-6.761-1.662-12.244-5.187-16.295-10.479 c-1.191-1.556-1.244-3.759-0.13-5.48l16.326-24.701c0.897-1.388,2.451-2.247,4.057-2.247c0.412,0,0.821,0.056,1.216,0.165 c6.57,1.819,11.967,5.285,16.042,10.301c1.284,1.581,1.376,3.835,0.229,5.61L46.958,71.746 C46.058,73.136,44.51,73.997,42.913,73.997z"></path><path fill="#472b29" d="M45.802,31.661L45.802,31.661c0.349,0,0.695,0.047,1.029,0.14 c6.427,1.78,11.704,5.167,15.685,10.068c1.092,1.345,1.166,3.269,0.192,4.777L46.366,71.372c-0.768,1.188-2.091,1.925-3.452,1.925 c-0.304,0-0.608-0.037-0.902-0.109c-6.603-1.623-11.954-5.063-15.907-10.224c-1.012-1.322-1.052-3.201-0.106-4.663l16.338-24.719 C43.103,32.397,44.431,31.661,45.802,31.661 M45.802,30.261c-1.824,0-3.594,0.942-4.641,2.561l-16.33,24.707 c-1.264,1.955-1.215,4.487,0.162,6.286c4.213,5.501,9.801,9.041,16.684,10.732c0.41,0.101,0.824,0.149,1.236,0.149 c1.822,0,3.586-0.954,4.628-2.565l16.335-24.715c1.301-2.013,1.197-4.622-0.273-6.432c-4.233-5.211-9.73-8.688-16.398-10.534 C46.742,30.323,46.27,30.261,45.802,30.261L45.802,30.261z"></path><g><path fill="#472b29" d="M38.302,53.396c-0.093,0-0.187-0.026-0.271-0.08c-0.232-0.15-0.298-0.459-0.148-0.691L44,43.163 c0.149-0.232,0.459-0.299,0.691-0.148c0.232,0.15,0.298,0.459,0.148,0.691l-6.118,9.462C38.626,53.316,38.466,53.396,38.302,53.396 z"></path></g><g><path fill="#472b29" d="M33.832,60.31c-0.093,0-0.187-0.026-0.271-0.08c-0.232-0.15-0.298-0.459-0.148-0.691l2.7-4.176 c0.15-0.232,0.458-0.298,0.691-0.148c0.232,0.15,0.298,0.459,0.148,0.691l-2.7,4.176C34.156,60.229,33.996,60.31,33.832,60.31z"></path></g><g><path fill="#472b29" d="M46.04,50.639c-0.093,0-0.187-0.026-0.271-0.08c-0.232-0.15-0.298-0.459-0.148-0.691l2.579-3.989 c0.15-0.232,0.459-0.299,0.691-0.148c0.232,0.15,0.298,0.459,0.148,0.691L46.46,50.41C46.364,50.558,46.204,50.639,46.04,50.639z"></path></g><g><path fill="#472b29" d="M38.03,63.025c-0.093,0-0.187-0.026-0.271-0.08c-0.232-0.15-0.298-0.459-0.148-0.691l6.051-9.359 c0.15-0.232,0.458-0.299,0.691-0.148c0.232,0.15,0.298,0.459,0.148,0.691l-6.051,9.359C38.355,62.944,38.194,63.025,38.03,63.025z"></path></g><g><path fill="#472b29" d="M42.229,65.74c-0.093,0-0.187-0.026-0.271-0.08c-0.232-0.15-0.298-0.459-0.148-0.691l5.973-9.237 c0.15-0.232,0.458-0.299,0.691-0.148c0.232,0.15,0.298,0.459,0.148,0.691l-5.973,9.237C42.553,65.659,42.393,65.74,42.229,65.74z"></path></g><g><circle cx="52" cy="40" r="2.5" fill="#f9dbd2" fill-rule="evenodd" clip-rule="evenodd"></circle><path fill="#472b29" d="M51.995,43.001c-0.572,0-1.132-0.164-1.624-0.482c-1.389-0.898-1.788-2.759-0.89-4.148 c0.899-1.389,2.759-1.788,4.148-0.89l0,0c1.389,0.898,1.788,2.759,0.89,4.148c-0.435,0.673-1.106,1.136-1.89,1.304 C52.418,42.979,52.206,43.001,51.995,43.001z M52.004,38.001c-0.657,0-1.301,0.322-1.683,0.913 c-0.599,0.926-0.333,2.167,0.593,2.765c0.449,0.29,0.984,0.388,1.506,0.276c0.522-0.112,0.97-0.421,1.26-0.869 c0.599-0.926,0.333-2.167-0.593-2.766C52.751,38.104,52.375,38.001,52.004,38.001z"></path></g><g><circle cx="52" cy="38" r="1.5" fill="#c5def0" fill-rule="evenodd" clip-rule="evenodd"></circle><path fill="#472b29" d="M51.997,39.749c-0.325,0-0.654-0.091-0.947-0.28c-0.393-0.254-0.663-0.646-0.761-1.102 c-0.098-0.457-0.012-0.925,0.242-1.317c0.254-0.393,0.645-0.663,1.102-0.761c0.456-0.099,0.924-0.013,1.317,0.241l0,0 c0.393,0.254,0.663,0.645,0.761,1.102s0.013,0.925-0.241,1.317C53.135,39.467,52.571,39.749,51.997,39.749z M52.003,36.75 c-0.088,0-0.177,0.01-0.265,0.028c-0.326,0.07-0.606,0.263-0.787,0.543c-0.182,0.28-0.243,0.615-0.173,0.941 c0.07,0.326,0.263,0.606,0.543,0.787c0.58,0.375,1.355,0.208,1.729-0.371c0.181-0.28,0.243-0.615,0.172-0.941 c-0.07-0.326-0.263-0.606-0.543-0.787l0,0C52.474,36.818,52.241,36.75,52.003,36.75z"></path></g><g><circle cx="52" cy="34" r="1.5" fill="#c5def0" fill-rule="evenodd" clip-rule="evenodd"></circle><path fill="#472b29" d="M51.997,35.749c-0.325,0-0.654-0.091-0.947-0.28c-0.393-0.254-0.663-0.646-0.761-1.102 c-0.098-0.457-0.012-0.925,0.242-1.317c0.254-0.393,0.645-0.663,1.102-0.761c0.456-0.098,0.924-0.013,1.317,0.241l0,0 c0.393,0.254,0.663,0.645,0.761,1.102s0.013,0.925-0.241,1.317C53.135,35.467,52.571,35.749,51.997,35.749z M52.003,32.75 c-0.088,0-0.177,0.01-0.265,0.028c-0.326,0.07-0.606,0.263-0.787,0.543c-0.182,0.28-0.243,0.615-0.173,0.941 c0.07,0.326,0.263,0.606,0.543,0.787c0.58,0.374,1.355,0.208,1.729-0.371c0.181-0.28,0.243-0.615,0.172-0.941 c-0.07-0.326-0.263-0.606-0.543-0.787l0,0C52.474,32.818,52.241,32.75,52.003,32.75z"></path></g><g><circle cx="52" cy="30" r="1.5" fill="#c5def0" fill-rule="evenodd" clip-rule="evenodd"></circle><path fill="#472b29" d="M51.997,31.749c-0.325,0-0.654-0.091-0.947-0.28c-0.393-0.254-0.663-0.646-0.761-1.102 c-0.098-0.457-0.012-0.925,0.242-1.317c0.254-0.393,0.645-0.663,1.102-0.761c0.456-0.099,0.924-0.013,1.317,0.241l0,0 c0.393,0.254,0.663,0.645,0.761,1.102s0.013,0.925-0.241,1.317C53.135,31.467,52.571,31.749,51.997,31.749z M52.003,28.75 c-0.088,0-0.177,0.01-0.265,0.028c-0.326,0.07-0.606,0.263-0.787,0.543c-0.182,0.28-0.243,0.615-0.173,0.941 c0.07,0.326,0.263,0.606,0.543,0.787c0.58,0.374,1.355,0.208,1.729-0.371c0.181-0.28,0.243-0.615,0.172-0.941 c-0.07-0.326-0.263-0.606-0.543-0.787l0,0C52.474,28.818,52.241,28.75,52.003,28.75z"></path></g><g><circle cx="52" cy="26" r="1.5" fill="#c5def0" fill-rule="evenodd" clip-rule="evenodd"></circle><path fill="#472b29" d="M51.997,27.749c-0.325,0-0.654-0.091-0.947-0.28c-0.393-0.254-0.663-0.646-0.761-1.102 c-0.098-0.457-0.012-0.925,0.242-1.317c0.254-0.393,0.645-0.663,1.102-0.761c0.456-0.099,0.924-0.013,1.317,0.241l0,0 c0.393,0.254,0.663,0.645,0.761,1.102s0.013,0.925-0.241,1.317C53.135,27.467,52.571,27.749,51.997,27.749z M52.003,24.75 c-0.088,0-0.177,0.01-0.265,0.028c-0.326,0.07-0.606,0.263-0.787,0.543c-0.182,0.28-0.243,0.615-0.173,0.941 c0.07,0.326,0.263,0.606,0.543,0.787c0.58,0.374,1.355,0.208,1.729-0.371c0.181-0.28,0.243-0.615,0.172-0.941 c-0.07-0.326-0.263-0.606-0.543-0.787l0,0C52.474,24.818,52.241,24.75,52.003,24.75z"></path></g><g><circle cx="52" cy="22" r="1.5" fill="#c5def0" fill-rule="evenodd" clip-rule="evenodd"></circle><path fill="#472b29" d="M51.997,23.749c-0.325,0-0.654-0.091-0.947-0.28c-0.393-0.254-0.663-0.646-0.761-1.102 c-0.098-0.457-0.012-0.925,0.242-1.317c0.254-0.393,0.645-0.663,1.102-0.761c0.456-0.098,0.924-0.013,1.317,0.241l0,0 c0.393,0.254,0.663,0.645,0.761,1.102s0.013,0.925-0.241,1.317C53.135,23.467,52.571,23.749,51.997,23.749z M52.003,20.75 c-0.088,0-0.177,0.01-0.265,0.028c-0.326,0.07-0.606,0.263-0.787,0.543c-0.182,0.28-0.243,0.615-0.173,0.941 c0.07,0.326,0.263,0.606,0.543,0.787c0.58,0.374,1.355,0.208,1.729-0.371c0.181-0.28,0.243-0.615,0.172-0.941 c-0.07-0.326-0.263-0.606-0.543-0.787l0,0C52.474,20.818,52.241,20.75,52.003,20.75z"></path></g><g><circle cx="52" cy="18" r="1.5" fill="#c5def0" fill-rule="evenodd" clip-rule="evenodd"></circle><path fill="#472b29" d="M51.997,19.749c-0.325,0-0.654-0.091-0.947-0.28c-0.393-0.254-0.663-0.646-0.761-1.102 c-0.098-0.457-0.012-0.925,0.242-1.317c0.254-0.393,0.645-0.663,1.102-0.761c0.456-0.099,0.924-0.013,1.317,0.241l0,0 c0.393,0.254,0.663,0.645,0.761,1.102s0.013,0.925-0.241,1.317C53.135,19.467,52.571,19.749,51.997,19.749z M52.003,16.75 c-0.088,0-0.177,0.01-0.265,0.028c-0.326,0.07-0.606,0.263-0.787,0.543c-0.182,0.28-0.243,0.615-0.173,0.941 c0.07,0.326,0.263,0.606,0.543,0.787c0.58,0.374,1.355,0.208,1.729-0.371c0.181-0.28,0.243-0.615,0.172-0.941 c-0.07-0.326-0.263-0.606-0.543-0.787l0,0C52.474,16.818,52.241,16.75,52.003,16.75z"></path></g>
</svg>
