<svg xmlns="http://www.w3.org/2000/svg" x="0px" y="0px" width="50" height="50" viewBox="0 0 100 100">
<circle cx="78" cy="14" r="1" fill="#f1bc19"></circle><circle cx="50" cy="50" r="38" fill="#f9dbd2"></circle><circle cx="84" cy="16" r="4" fill="#f1bc19"></circle><circle cx="14" cy="26" r="2" fill="#ee3e54"></circle><circle cx="78" cy="77" r="2" fill="#fbcd59"></circle><circle cx="17" cy="78" r="4" fill="#fbcd59"></circle><circle cx="24" cy="83" r="2" fill="#ee3e54"></circle><circle cx="64.483" cy="78.517" r="2.483" fill="#fff"></circle><circle cx="16" cy="48" r="1" fill="#fff"></circle><circle cx="86" cy="31" r="1" fill="#f1bc19"></circle><circle cx="75" cy="28" r="2" fill="#fff"></circle><polygon fill="#78a0cf" points="23.205,68.967 50.5,21.08 77.795,68.967"></polygon><path fill="#472b29" d="M50.5,22.494l26.091,45.773H24.409L50.5,22.494 M50.5,19.667l-28.5,50h57L50.5,19.667L50.5,19.667 z"></path><path fill="#c5def0" d="M50.996,29.348c-0.222-0.379-0.771-0.379-0.993,0L35.582,53.974l-5.95,10.16 C29.408,64.518,29.684,65,30.128,65h40.743c0.444,0,0.721-0.482,0.496-0.866L50.996,29.348z"></path><path fill="#472b29" d="M71,65H53c-0.276,0-0.5-0.224-0.5-0.5S52.724,64,53,64h17.128l-3.732-6.372 c-0.14-0.238-0.06-0.545,0.179-0.684c0.238-0.139,0.546-0.06,0.685,0.179l4.173,7.125c0.091,0.155,0.091,0.346,0.002,0.501 S71.179,65,71,65z"></path><g><path fill="#472b29" d="M49.25,65h-9.5c-0.276,0-0.5-0.224-0.5-0.5s0.224-0.5,0.5-0.5h9.5c0.276,0,0.5,0.224,0.5,0.5 S49.526,65,49.25,65z"></path></g><g><path fill="#472b29" d="M36.5,65H30c-0.179,0-0.345-0.096-0.434-0.251c-0.089-0.155-0.088-0.347,0.002-0.501l6.125-10.457 c0.14-0.238,0.445-0.318,0.685-0.179c0.238,0.14,0.318,0.446,0.179,0.684L30.872,64H36.5c0.276,0,0.5,0.224,0.5,0.5 S36.776,65,36.5,65z"></path></g><g><path fill="#472b29" d="M42.812,43.125c-0.086,0-0.173-0.022-0.252-0.069c-0.238-0.14-0.318-0.446-0.179-0.684l2.929-5 c0.14-0.238,0.446-0.318,0.685-0.179c0.238,0.14,0.318,0.446,0.179,0.684l-2.929,5C43.151,43.037,42.984,43.125,42.812,43.125z"></path></g><g><path fill="#472b29" d="M57.528,42c-0.171,0-0.339-0.089-0.432-0.247L50.5,30.489l-2.863,4.888 c-0.14,0.238-0.446,0.318-0.685,0.179c-0.238-0.14-0.318-0.446-0.179-0.684l3.294-5.625c0.18-0.306,0.684-0.306,0.863,0l7.028,12 c0.14,0.238,0.06,0.545-0.179,0.684C57.701,41.978,57.614,42,57.528,42z"></path></g><g><path fill="#fff" d="M50.5,46c-3.5,0-8.167,2.75-10.5,5.5c2.25,2.875,7,5.5,10.5,5.5s8.167-2.75,10.5-5.5 C58.667,48.75,54,46,50.5,46z"></path><path fill="#472b29" d="M50.5,57.5c-3.551,0-8.438-2.553-10.894-5.692c-0.146-0.187-0.141-0.451,0.012-0.632 c2.316-2.73,7.135-5.677,10.881-5.677s8.565,2.947,10.881,5.677c0.159,0.187,0.159,0.46,0,0.647 C59.065,54.553,54.246,57.5,50.5,57.5z M40.656,51.512c2.333,2.735,6.738,4.988,9.844,4.988c3.315,0,7.571-2.536,9.833-5 c-2.262-2.464-6.518-5-9.833-5C47.18,46.5,42.915,49.044,40.656,51.512z"></path></g><g><circle cx="50.5" cy="51.5" r="5" fill="#bd977c"></circle><path fill="#472b29" d="M50.5,57c-3.033,0-5.5-2.467-5.5-5.5s2.467-5.5,5.5-5.5c3.032,0,5.5,2.467,5.5,5.5 S53.532,57,50.5,57z M50.5,47c-2.481,0-4.5,2.019-4.5,4.5s2.019,4.5,4.5,4.5s4.5-2.019,4.5-4.5S52.981,47,50.5,47z"></path></g><g><circle cx="50.5" cy="51.5" r="1.5" fill="#472b29"></circle></g><g><path fill="#472b29" d="M57.5,45.75c-0.057,0-0.113-0.019-0.16-0.058c-0.839-0.699-1.783-1.261-2.808-1.671 c-0.128-0.051-0.19-0.197-0.14-0.325c0.052-0.128,0.199-0.19,0.325-0.139c1.073,0.429,2.063,1.018,2.942,1.751 c0.106,0.088,0.12,0.246,0.032,0.352C57.643,45.719,57.571,45.75,57.5,45.75z"></path></g><g><path fill="#472b29" d="M43.5,45.75c-0.071,0-0.143-0.031-0.192-0.09c-0.088-0.106-0.074-0.264,0.032-0.352 c2.572-2.143,6.112-3.012,9.46-2.325c0.136,0.028,0.223,0.16,0.195,0.295c-0.028,0.135-0.163,0.222-0.295,0.195 c-3.204-0.657-6.584,0.173-9.04,2.219C43.613,45.731,43.557,45.75,43.5,45.75z"></path></g><g><path fill="#472b29" d="M46.875,59.768c-0.022,0-0.044-0.003-0.066-0.009c-1.268-0.349-2.428-0.871-3.448-1.551 c-0.115-0.077-0.146-0.232-0.069-0.347c0.077-0.115,0.233-0.146,0.347-0.069c0.975,0.65,2.086,1.15,3.303,1.484 c0.133,0.037,0.211,0.174,0.175,0.307C47.085,59.695,46.985,59.768,46.875,59.768z"></path></g><g><path fill="#472b29" d="M50.501,60.25c-0.507,0-1.018-0.027-1.528-0.082c-0.137-0.015-0.236-0.138-0.222-0.275 c0.015-0.138,0.142-0.236,0.275-0.222c3.016,0.325,6.055-0.36,8.333-1.879c0.114-0.076,0.27-0.046,0.347,0.069 c0.076,0.115,0.046,0.27-0.069,0.347C55.649,59.534,53.112,60.25,50.501,60.25z"></path></g>
</svg>
