<svg xmlns="http://www.w3.org/2000/svg" x="0px" y="0px" width="50" height="50" viewBox="0 0 100 100">
<circle cx="77" cy="13" r="1" fill="#f1bc19"></circle><circle cx="50" cy="50" r="37" fill="#e6edb7"></circle><circle cx="83" cy="15" r="4" fill="#f1bc19"></circle><circle cx="87" cy="24" r="2" fill="#9f8066"></circle><circle cx="81" cy="76" r="2" fill="#fbcd59"></circle><circle cx="15" cy="63" r="4" fill="#fbcd59"></circle><circle cx="25" cy="87" r="2" fill="#9f8066"></circle><circle cx="18.5" cy="51.5" r="2.5" fill="#fff"></circle><circle cx="79.5" cy="52.5" r="1.5" fill="#fff"></circle><g><path fill="#78a0cf" d="M51.527,74.192c-2.062,0-4.316-0.244-6.701-0.725c-1.486-0.3-2.622-0.853-3.937-1.494 c-0.495-0.241-1.01-0.492-1.57-0.743c-1.781-0.798-4.255-2.459-5.514-3.704c-2.765-2.733-6.438-7.1-7.028-13.832 c0.211,0.33,0.421,0.661,0.63,0.992c0.643,1.016,1.308,2.066,2.021,3.086l1.259,1.799l0.016-2.433 c0.003-1.699,0.113-2.466,0.232-2.799c0.362,0.458,0.844,1.615,1.143,2.331c0.169,0.405,0.32,0.766,0.444,1.014l0.168,0.337 c0.887,1.785,1,1.896,3.007,2.971l0.267,0.143c0.621,0.333,1.333,0.821,2.088,1.337c1.388,0.951,2.823,1.934,4.172,2.311 c3.347,0.934,5.469,1.37,6.682,1.37c1.109,0,1.513-0.369,1.83-0.747c0.133-0.158,0.178-0.212,0.606-0.212 c0.375,0,0.913,0.07,1.6,0.207l0.084,0.017l0.085-0.004c2.563-0.115,4.981-1.144,7.397-3.148 c1.734-1.44,3.968-3.596,4.764-5.695c0.358-0.944,0.179-1.842,0.02-2.635c-0.148-0.742-0.277-1.382-0.033-2.049 c0.665-1.819,0.677-3.62,0.032-5.208c-0.321-0.794-0.568-1.449-0.802-2.068c-0.381-1.012-0.741-1.967-1.332-3.264 c-0.255-0.561-0.946-1.049-1.972-1.729c-0.419-0.278-0.853-0.565-1.089-0.78c-1.035-0.942-2.938-2.12-4.426-2.449 c-1.07-0.236-2.135-0.356-3.164-0.356c-4.572,0-8.41,2.37-11.876,4.932c-0.23,0.17-0.593,0.496-0.989,0.856 c-0.526,0.478-1.248,1.133-1.561,1.289c-1.762,0.882-3.146,1.428-4.595,1.428c-0.719,0-1.437-0.134-2.195-0.411 c-0.726-0.264-1.64-0.684-1.844-0.887c-0.583-0.584-0.853-1.337-0.822-2.301c0.096-3.046,3.114-6.906,4.357-8.002 c0.446-0.393,0.919-0.755,1.391-1.118c0.388-0.298,0.775-0.596,1.15-0.909c0.431-0.36,0.844-0.741,1.257-1.121 c0.423-0.389,0.846-0.779,1.289-1.145c2.832-2.337,6.634-3.724,10.707-3.908c0.514-0.023,1.045-0.035,1.587-0.035 c4.106,0,8.057,0.673,10.836,1.846c3.12,1.317,5.393,3.477,7.799,5.764c0.414,0.393,0.833,0.791,1.262,1.191 c0.26,0.242,0.627,0.518,1.053,0.837c1.098,0.823,2.756,2.067,3.125,3.301c0.16,0.535,0.043,1.005-0.093,1.549 c-0.181,0.724-0.405,1.621,0.106,2.695c0.196,0.705,0.356,1.231,0.501,1.705c0.267,0.876,0.478,1.567,0.766,2.913 c0.51,2.375,0.444,6.335-0.142,8.647c-0.232,0.912-0.563,2.068-1.068,2.909c-0.61,1.016-1.353,2.078-2.071,3.106 c-0.732,1.047-1.489,2.13-2.124,3.188c-0.766,1.273-1.556,2.067-2.556,3.071l-0.598,0.604c-2.42,2.469-5.527,4.151-10.076,5.453 C55.433,73.953,53.563,74.192,51.527,74.192z"></path><path fill="#472b29" d="M50.36,25.4L50.36,25.4c4.018,0,7.869,0.653,10.566,1.791c3.003,1.267,5.128,3.288,7.59,5.628 c0.415,0.395,0.835,0.794,1.265,1.195c0.287,0.268,0.669,0.554,1.11,0.885c1.024,0.768,2.571,1.929,2.874,2.941 c0.1,0.336,0.034,0.635-0.102,1.18c-0.194,0.778-0.458,1.833,0.127,3.108c0.191,0.682,0.348,1.197,0.49,1.663 c0.272,0.894,0.469,1.54,0.752,2.857c0.491,2.289,0.428,6.103-0.136,8.328c-0.22,0.865-0.531,1.957-0.99,2.721 c-0.598,0.996-1.334,2.048-2.045,3.065c-0.739,1.057-1.503,2.149-2.151,3.228c-0.722,1.202-1.449,1.931-2.455,2.941 c-0.192,0.193-0.391,0.393-0.598,0.604c-2.33,2.378-5.343,4.004-9.768,5.271c-1.587,0.455-3.391,0.685-5.363,0.685 c-2.015,0-4.223-0.239-6.563-0.711c-1.398-0.282-2.495-0.817-3.766-1.437c-0.502-0.245-1.024-0.499-1.592-0.753 c-1.69-0.757-4.12-2.389-5.308-3.563c-2.185-2.161-4.956-5.371-6.219-10c0.252,0.383,0.51,0.765,0.775,1.144l2.516,3.597 l0.031-4.389l0.001-0.247c0-0.09,0.001-0.177,0.002-0.263c0.01,0.024,0.02,0.047,0.029,0.069 c0.173,0.417,0.323,0.776,0.463,1.056l0.166,0.334c0.955,1.921,1.171,2.136,3.305,3.278l0.266,0.142 c0.588,0.315,1.285,0.793,2.023,1.298c1.435,0.983,2.92,2,4.38,2.408c3.456,0.965,5.574,1.395,6.869,1.395 c1.308,0,1.9-0.455,2.332-0.957c0.028-0.001,0.063-0.003,0.105-0.003c0.329,0,0.821,0.065,1.463,0.194l0.167,0.033l0.17-0.008 c2.721-0.121,5.277-1.204,7.813-3.308c1.799-1.492,4.122-3.742,4.972-5.986c0.429-1.132,0.219-2.179,0.051-3.02 c-0.148-0.737-0.23-1.212-0.062-1.67c0.727-1.983,0.735-3.958,0.025-5.712c-0.319-0.787-0.564-1.437-0.795-2.05 c-0.386-1.023-0.75-1.99-1.35-3.309c-0.358-0.786-1.222-1.359-2.222-2.022c-0.397-0.263-0.807-0.535-1.004-0.714 c-1.13-1.028-3.124-2.256-4.747-2.615c-1.12-0.248-2.235-0.373-3.315-0.373c-4.775,0-8.73,2.436-12.292,5.069 c-0.275,0.203-0.631,0.526-1.043,0.9c-0.404,0.367-1.156,1.049-1.404,1.182c-1.671,0.836-2.97,1.354-4.282,1.354 c-0.635,0-1.274-0.121-1.955-0.369c-0.658-0.24-1.427-0.596-1.587-0.723c-0.447-0.447-0.643-1.014-0.619-1.785 c0.088-2.792,2.984-6.495,4.121-7.499c0.423-0.373,0.876-0.721,1.356-1.089c0.395-0.303,0.789-0.606,1.171-0.926 c0.448-0.375,0.872-0.765,1.282-1.143c0.43-0.396,0.836-0.77,1.26-1.12c2.716-2.241,6.371-3.572,10.294-3.749 C49.314,25.412,49.836,25.4,50.36,25.4 M31.623,54.526h0.005H31.623 M51.324,65.792h0.005H51.324 M50.36,24 c-0.552,0-1.092,0.012-1.615,0.036c-4.013,0.181-8.023,1.511-11.122,4.067c-0.878,0.724-1.677,1.539-2.55,2.269 c-0.836,0.699-1.737,1.318-2.554,2.039c-1.821,1.605-6.713,8.176-3.566,11.323c0.394,0.394,1.731,0.915,2.098,1.049 c0.864,0.315,1.663,0.453,2.434,0.453c1.638,0,3.153-0.624,4.908-1.502c0.641-0.321,2.077-1.782,2.653-2.208 c3.947-2.917,7.444-4.795,11.46-4.795c0.969,0,1.969,0.11,3.013,0.34c1.312,0.29,3.113,1.379,4.107,2.283 c0.726,0.66,2.585,1.602,2.894,2.281c0.935,2.055,1.267,3.194,2.122,5.305c0.613,1.513,0.52,3.172-0.042,4.705 c-0.614,1.676,0.6,3.139,0.017,4.676c-0.742,1.958-2.946,4.068-4.557,5.404c-2.039,1.692-4.334,2.869-6.982,2.987 c-0.789-0.158-1.341-0.221-1.737-0.221c-1.549,0-0.726,0.959-2.437,0.959c-0.992,0-2.837-0.323-6.492-1.344 c-1.952-0.545-4.331-2.632-6.117-3.591c-2.289-1.228-2.106-1.065-3.147-3.146c-0.422-0.843-1.16-3.046-1.875-3.661 c-0.167-0.125-0.311-0.181-0.437-0.181c-0.884,0-0.827,2.773-0.835,3.842c-1.1-1.573-2.067-3.194-3.109-4.788 c-0.097-0.148-0.243-0.214-0.389-0.214c-0.25,0-0.497,0.195-0.483,0.5c0.347,7.428,4.337,12.232,7.292,15.155 c1.372,1.357,3.959,3.056,5.72,3.845c2.067,0.926,3.505,1.852,5.654,2.285c2.191,0.442,4.527,0.739,6.84,0.739 c1.968,0,3.919-0.215,5.748-0.739c3.933-1.126,7.52-2.714,10.383-5.637c1.304-1.331,2.294-2.206,3.253-3.804 c1.246-2.074,2.95-4.219,4.196-6.293c0.519-0.864,0.865-1.989,1.146-3.098c0.622-2.451,0.678-6.494,0.148-8.966 c-0.455-2.121-0.72-2.649-1.295-4.72c-0.803-1.607,0.469-2.626,0-4.196c-0.58-1.941-3.445-3.586-4.371-4.45 c-2.997-2.794-5.49-5.496-9.266-7.089C58.252,24.543,54.042,24,50.36,24L50.36,24z"></path><path fill="#78a0cf" d="M49.813,33.502c2.306-0.287,4.895-0.414,7.974,0.992"></path><path fill="#472b29" d="M57.788,34.744c-0.035,0-0.07-0.007-0.104-0.023c-3.094-1.412-5.67-1.241-7.84-0.971 c-0.149,0.018-0.263-0.081-0.279-0.217c-0.017-0.137,0.08-0.262,0.217-0.279c2.242-0.279,4.9-0.453,8.109,1.012 c0.126,0.057,0.182,0.206,0.124,0.331C57.974,34.689,57.883,34.744,57.788,34.744z"></path><path fill="#78a0cf" d="M39.418,38.24c2.3-1.809,4.988-3.542,8.388-4.371"></path><path fill="#472b29" d="M39.418,38.49c-0.074,0-0.147-0.033-0.196-0.095c-0.086-0.109-0.066-0.266,0.042-0.351 c2.014-1.585,4.798-3.518,8.483-4.417c0.138-0.033,0.27,0.05,0.303,0.184c0.032,0.134-0.05,0.269-0.184,0.302 c-3.593,0.876-6.319,2.771-8.294,4.324C39.526,38.473,39.473,38.49,39.418,38.49z"></path><path fill="#78a0cf" d="M31.608,39.515c-0.937,1.272,1.741,3.816,6.093,0.134"></path><path fill="#472b29" d="M33.512,41.812c-0.769,0-1.394-0.241-1.824-0.644c-0.561-0.524-0.676-1.265-0.28-1.802 c0.082-0.112,0.239-0.134,0.35-0.053c0.111,0.082,0.135,0.238,0.053,0.35c-0.244,0.331-0.156,0.789,0.219,1.14 c0.691,0.646,2.629,1.093,5.512-1.345c0.104-0.089,0.264-0.076,0.352,0.029c0.09,0.105,0.076,0.263-0.029,0.352 C36.197,41.249,34.687,41.812,33.512,41.812z"></path><path fill="#78a0cf" d="M50.757,71.364c-1.865,0.014-3.895-0.179-6.092-0.647"></path><path fill="#472b29" d="M50.576,71.614c-1.922,0-3.927-0.22-5.963-0.654c-0.136-0.029-0.222-0.162-0.192-0.297 c0.028-0.134,0.159-0.222,0.296-0.192c2.064,0.44,4.091,0.655,6.038,0.642c0.001,0,0.001,0,0.002,0 c0.138,0,0.249,0.111,0.25,0.248c0.001,0.138-0.11,0.251-0.248,0.252C50.698,71.614,50.637,71.614,50.576,71.614z"></path><g><path fill="#78a0cf" d="M67.229,63.753c0,0-4.449,6.362-13.873,7.453"></path><path fill="#472b29" d="M53.355,71.456c-0.126,0-0.233-0.094-0.248-0.221c-0.017-0.137,0.082-0.261,0.22-0.277 c9.194-1.064,13.652-7.285,13.696-7.348c0.08-0.114,0.236-0.14,0.349-0.061c0.113,0.079,0.141,0.235,0.062,0.348 c-0.045,0.065-4.623,6.467-14.05,7.558C53.374,71.456,53.364,71.456,53.355,71.456z"></path></g><g><path fill="#472b29" d="M41.183,64.722c-0.089,0-0.179-0.023-0.26-0.073c-2.537-1.543-4.492-4.421-5.504-8.102 c-0.073-0.266,0.084-0.541,0.35-0.615c0.271-0.073,0.541,0.083,0.615,0.35c0.93,3.384,2.773,6.123,5.059,7.512 c0.236,0.143,0.311,0.451,0.167,0.687C41.516,64.636,41.351,64.722,41.183,64.722z"></path></g><g><path fill="#472b29" d="M35.075,61.075c-0.146,0-0.291-0.064-0.39-0.187c-1.612-2.004-2.467-4.383-2.611-7.273 c-0.014-0.276,0.198-0.511,0.474-0.524c0.302-0.015,0.512,0.199,0.524,0.474c0.134,2.672,0.916,4.862,2.393,6.696 c0.173,0.215,0.139,0.53-0.076,0.703C35.296,61.038,35.186,61.075,35.075,61.075z"></path></g><g><path fill="#472b29" d="M28.788,52.224c-0.25,0-0.466-0.187-0.496-0.442c-0.213-1.819-0.1-3.483,0.329-4.811 c0.085-0.263,0.368-0.407,0.629-0.322c0.263,0.085,0.407,0.367,0.322,0.629c-0.385,1.193-0.483,2.71-0.286,4.387 c0.032,0.274-0.164,0.523-0.438,0.555C28.827,52.223,28.808,52.224,28.788,52.224z"></path></g></g>
</svg>
