<svg xmlns="http://www.w3.org/2000/svg" x="0px" y="0px" width="50" height="50" viewBox="0 0 100 100">
<circle cx="13" cy="29" r="2" fill="#ee3e54"></circle><circle cx="76" cy="14" r="1" fill="#f1bc19"></circle><circle cx="50" cy="50" r="37" fill="#fce0a2"></circle><circle cx="83" cy="16" r="4" fill="#f1bc19"></circle><circle cx="87" cy="24" r="2" fill="#ee3e54"></circle><circle cx="81" cy="77" r="2" fill="#fbcd59"></circle><circle cx="14" cy="63" r="4" fill="#fbcd59"></circle><circle cx="25" cy="87" r="2" fill="#ee3e54"></circle><circle cx="64.5" cy="78.5" r="2.5" fill="#fff"></circle><circle cx="17" cy="47" r="1" fill="#f1bc19"></circle><circle cx="83" cy="42" r="1" fill="#fff"></circle><path fill="#cbc9bc" d="M47.302,68.296H21.704V42.45c0-5.937,4.813-10.75,10.75-10.75h4.098 c5.937,0,10.75,4.813,10.75,10.75V68.296z"></path><path fill="none" stroke="#472b29" stroke-linejoin="round" stroke-miterlimit="10" stroke-width="1.4" d="M47.302,68.296H21.704 V42.45c0-5.937,4.813-10.75,10.75-10.75h4.098c5.937,0,10.75,4.813,10.75,10.75V68.296z"></path><path fill="#e1e0d8" d="M25,46v-2.75c0-5.937,4.837-10.854,10.774-10.854h0C41.711,32.396,47,37.063,47,43v26H25V54V46z"></path><line x1="25.5" x2="25.5" y1="50.5" y2="48.5" fill="none" stroke="#472b29" stroke-linecap="round" stroke-linejoin="round" stroke-miterlimit="10"></line><path fill="#cbc9bc" d="M52.704,68.296h25.598V42.45c0-5.937-4.813-10.75-10.75-10.75h-4.098 c-5.937,0-10.75,4.813-10.75,10.75V68.296z"></path><path fill="#e1e0d8" d="M75.006,46v-2.75c0-5.937-4.837-10.854-10.774-10.854h0c-5.937,0-11.226,4.666-11.226,10.604v26h22 V54V46z"></path><path fill="none" stroke="#472b29" stroke-linejoin="round" stroke-miterlimit="10" stroke-width="1.4" d="M52.701,68.296h25.598 V42.45c0-5.937-4.813-10.75-10.75-10.75h-4.098c-5.937,0-10.75,4.813-10.75,10.75V68.296z"></path><path fill="none" stroke="#472b29" stroke-linecap="round" stroke-linejoin="round" stroke-miterlimit="10" d="M74.5,57.5 l0.003-14.75c0-5.937-4.837-10.854-10.774-10.854h0c-5.937,0-11.226,4.666-11.226,10.604v26h22l-0.003-8"></path><line x1="30.5" x2="42.5" y1="40.5" y2="40.5" fill="none" stroke="#472b29" stroke-linecap="round" stroke-linejoin="round" stroke-miterlimit="10" stroke-width=".5"></line><line x1="40.5" x2="43.5" y1="43.5" y2="43.5" fill="none" stroke="#472b29" stroke-linecap="round" stroke-linejoin="round" stroke-miterlimit="10" stroke-width=".5"></line><line x1="29.5" x2="37.5" y1="43.5" y2="43.5" fill="none" stroke="#472b29" stroke-linecap="round" stroke-linejoin="round" stroke-miterlimit="10" stroke-width=".5"></line><line x1="29.5" x2="43.5" y1="46.5" y2="46.5" fill="none" stroke="#472b29" stroke-linecap="round" stroke-linejoin="round" stroke-miterlimit="10" stroke-width=".5"></line><line x1="35.5" x2="43.5" y1="49.5" y2="49.5" fill="none" stroke="#472b29" stroke-linecap="round" stroke-linejoin="round" stroke-miterlimit="10" stroke-width=".5"></line><line x1="29.5" x2="32.5" y1="49.5" y2="49.5" fill="none" stroke="#472b29" stroke-linecap="round" stroke-linejoin="round" stroke-miterlimit="10" stroke-width=".5"></line><line x1="29.5" x2="43.5" y1="52.5" y2="52.5" fill="none" stroke="#472b29" stroke-linecap="round" stroke-linejoin="round" stroke-miterlimit="10" stroke-width=".5"></line><line x1="40.5" x2="43.5" y1="55.5" y2="55.5" fill="none" stroke="#472b29" stroke-linecap="round" stroke-linejoin="round" stroke-miterlimit="10" stroke-width=".5"></line><line x1="29.5" x2="37.5" y1="55.5" y2="55.5" fill="none" stroke="#472b29" stroke-linecap="round" stroke-linejoin="round" stroke-miterlimit="10" stroke-width=".5"></line><line x1="29.5" x2="43.5" y1="58.5" y2="58.5" fill="none" stroke="#472b29" stroke-linecap="round" stroke-linejoin="round" stroke-miterlimit="10" stroke-width=".5"></line><line x1="57.5" x2="69.5" y1="40.5" y2="40.5" fill="none" stroke="#472b29" stroke-linecap="round" stroke-linejoin="round" stroke-miterlimit="10" stroke-width=".5"></line><line x1="62.5" x2="70.5" y1="43.5" y2="43.5" fill="none" stroke="#472b29" stroke-linecap="round" stroke-linejoin="round" stroke-miterlimit="10" stroke-width=".5"></line><line x1="56.5" x2="59.5" y1="43.5" y2="43.5" fill="none" stroke="#472b29" stroke-linecap="round" stroke-linejoin="round" stroke-miterlimit="10" stroke-width=".5"></line><line x1="56.5" x2="70.5" y1="46.5" y2="46.5" fill="none" stroke="#472b29" stroke-linecap="round" stroke-linejoin="round" stroke-miterlimit="10" stroke-width=".5"></line><line x1="67.5" x2="70.5" y1="49.5" y2="49.5" fill="none" stroke="#472b29" stroke-linecap="round" stroke-linejoin="round" stroke-miterlimit="10" stroke-width=".5"></line><line x1="56.5" x2="64.5" y1="49.5" y2="49.5" fill="none" stroke="#472b29" stroke-linecap="round" stroke-linejoin="round" stroke-miterlimit="10" stroke-width=".5"></line><line x1="56.5" x2="70.5" y1="52.5" y2="52.5" fill="none" stroke="#472b29" stroke-linecap="round" stroke-linejoin="round" stroke-miterlimit="10" stroke-width=".5"></line><line x1="62.5" x2="70.5" y1="55.5" y2="55.5" fill="none" stroke="#472b29" stroke-linecap="round" stroke-linejoin="round" stroke-miterlimit="10" stroke-width=".5"></line><line x1="56.5" x2="59.5" y1="55.5" y2="55.5" fill="none" stroke="#472b29" stroke-linecap="round" stroke-linejoin="round" stroke-miterlimit="10" stroke-width=".5"></line><line x1="56.5" x2="70.5" y1="58.5" y2="58.5" fill="none" stroke="#472b29" stroke-linecap="round" stroke-linejoin="round" stroke-miterlimit="10" stroke-width=".5"></line><path fill="none" stroke="#472b29" stroke-linecap="round" stroke-linejoin="round" stroke-miterlimit="10" d="M25.5,45.5v-2.75 c0-5.937,4.837-10.854,10.774-10.854h0c5.937,0,11.226,4.666,11.226,10.604v26h-22v-15"></path>
</svg>
