<svg xmlns="http://www.w3.org/2000/svg" x="0px" y="0px" width="50" height="50" viewBox="0 0 100 100">
<circle cx="77" cy="13" r="1" fill="#f1bc19"></circle><circle cx="50" cy="50" r="37" fill="#e6edb7"></circle><circle cx="83" cy="15" r="4" fill="#f1bc19"></circle><circle cx="87" cy="24" r="2" fill="#9f8066"></circle><circle cx="81" cy="76" r="2" fill="#fbcd59"></circle><circle cx="15" cy="63" r="4" fill="#fbcd59"></circle><circle cx="25" cy="87" r="2" fill="#9f8066"></circle><circle cx="19.5" cy="43.5" r="2.5" fill="#fff"></circle><circle cx="79.5" cy="33.5" r="1.5" fill="#fff"></circle><path fill="#ee3e54" d="M35.899,50.409l-9.106,12.357l9.128,0.124l2.822,8.681l9.028-12.252"></path><path fill="#472b29" d="M38.743,72.271c-0.037,0-0.074-0.003-0.111-0.009c-0.26-0.042-0.474-0.225-0.555-0.475l-2.666-8.205 l-8.627-0.117c-0.262-0.003-0.5-0.153-0.617-0.388c-0.116-0.235-0.092-0.516,0.063-0.727l9.105-12.358 c0.229-0.311,0.667-0.379,0.979-0.148c0.312,0.229,0.378,0.667,0.148,0.979l-8.297,11.261l7.766,0.105 c0.3,0.004,0.563,0.198,0.656,0.483l2.4,7.386l8.22-11.155c0.228-0.312,0.667-0.378,0.979-0.148 c0.312,0.229,0.378,0.667,0.148,0.979l-9.028,12.252C39.173,72.167,38.964,72.271,38.743,72.271z"></path><path fill="#ee3e54" d="M35.921,62.816l4.957-6.728"></path><path fill="#472b29" d="M35.922,63.166c-0.072,0-0.146-0.022-0.208-0.068c-0.155-0.115-0.188-0.333-0.074-0.489l4.957-6.728 c0.116-0.155,0.336-0.188,0.49-0.074c0.155,0.115,0.188,0.333,0.074,0.489l-4.957,6.728C36.134,63.117,36.029,63.166,35.922,63.166 z"></path><path fill="#ee3e54" d="M37.904,60.362l1.731,4.889"></path><path fill="#472b29" d="M39.634,65.5c-0.103,0-0.199-0.064-0.235-0.167l-1.73-4.889c-0.047-0.13,0.021-0.273,0.152-0.319 c0.129-0.047,0.272,0.022,0.318,0.152l1.73,4.889c0.047,0.13-0.021,0.273-0.152,0.319C39.69,65.496,39.662,65.5,39.634,65.5z"></path><path fill="#ee3e54" d="M39.47,57.999l2.923,8.257"></path><path fill="#472b29" d="M42.393,66.506c-0.103,0-0.199-0.064-0.235-0.167l-2.923-8.256 c-0.047-0.13,0.021-0.273,0.152-0.319c0.128-0.048,0.272,0.022,0.318,0.152l2.923,8.256c0.047,0.13-0.021,0.273-0.152,0.319 C42.449,66.501,42.421,66.506,42.393,66.506z"></path><g><path fill="#ee3e54" d="M41.799,56.73l2.465,6.966"></path><path fill="#472b29" d="M44.264,63.946c-0.103,0-0.199-0.064-0.235-0.167l-2.466-6.966 c-0.047-0.13,0.021-0.273,0.152-0.319c0.129-0.048,0.272,0.022,0.318,0.152l2.466,6.966c0.047,0.13-0.021,0.273-0.152,0.319 C44.32,63.941,44.292,63.946,44.264,63.946z"></path></g><g><path fill="#ee3e54" d="M40.017,66.257l0.133,0.377"></path><path fill="#472b29" d="M40.15,66.884c-0.104,0-0.199-0.064-0.235-0.167l-0.133-0.376c-0.046-0.13,0.021-0.273,0.152-0.319 c0.131-0.047,0.272,0.022,0.318,0.153l0.133,0.376c0.046,0.13-0.021,0.273-0.152,0.319C40.206,66.879,40.177,66.884,40.15,66.884z"></path></g><g><path fill="#ee3e54" d="M65.043,50.409l9.105,12.357L65.02,62.89l-2.822,8.681L53.17,59.319"></path><path fill="#472b29" d="M62.198,72.271c-0.221,0-0.431-0.104-0.563-0.285l-9.027-12.252 c-0.229-0.311-0.163-0.75,0.148-0.979c0.312-0.23,0.751-0.163,0.979,0.148l8.22,11.155l2.4-7.386 c0.093-0.285,0.356-0.479,0.656-0.483l7.766-0.105L64.48,50.823c-0.229-0.311-0.163-0.749,0.148-0.979 c0.312-0.231,0.75-0.163,0.979,0.148l9.105,12.358c0.155,0.211,0.18,0.492,0.063,0.727s-0.355,0.385-0.617,0.388l-8.627,0.117 l-2.667,8.205c-0.081,0.25-0.295,0.433-0.555,0.475C62.272,72.268,62.235,72.271,62.198,72.271z"></path><path fill="#ee3e54" d="M65.02,62.816l-4.835-6.562"></path><path fill="#472b29" d="M65.02,63.166c-0.107,0-0.213-0.049-0.282-0.143l-4.835-6.562 c-0.114-0.156-0.081-0.375,0.074-0.489c0.155-0.114,0.374-0.082,0.49,0.074l4.835,6.562c0.114,0.156,0.081,0.375-0.074,0.489 C65.166,63.144,65.092,63.166,65.02,63.166z"></path><path fill="#ee3e54" d="M63.037,60.362l-1.73,4.889"></path><path fill="#472b29" d="M61.307,65.5c-0.027,0-0.056-0.004-0.083-0.014c-0.131-0.046-0.198-0.189-0.152-0.319l1.729-4.889 c0.046-0.13,0.188-0.199,0.318-0.152c0.131,0.046,0.198,0.189,0.152,0.319l-1.729,4.889C61.507,65.436,61.41,65.5,61.307,65.5z"></path><path fill="#ee3e54" d="M61.471,57.999l-2.923,8.257"></path><path fill="#472b29" d="M58.548,66.506c-0.027,0-0.056-0.004-0.083-0.014c-0.131-0.046-0.199-0.189-0.152-0.319 l2.923-8.256c0.046-0.13,0.188-0.2,0.318-0.152c0.131,0.046,0.199,0.189,0.152,0.319l-2.923,8.256 C58.748,66.442,58.651,66.506,58.548,66.506z"></path><path fill="#ee3e54" d="M59.143,56.73l-2.466,6.966"></path><path fill="#472b29" d="M56.676,63.946c-0.027,0-0.056-0.004-0.083-0.014c-0.131-0.046-0.199-0.189-0.152-0.319 l2.466-6.966c0.045-0.13,0.188-0.199,0.318-0.152c0.131,0.046,0.199,0.189,0.152,0.319l-2.466,6.966 C56.876,63.882,56.779,63.946,56.676,63.946z"></path><g><path fill="#ee3e54" d="M60.924,66.257l-0.133,0.377"></path><path fill="#472b29" d="M60.792,66.884c-0.027,0-0.056-0.004-0.083-0.014c-0.131-0.046-0.198-0.189-0.152-0.319 l0.133-0.376c0.046-0.13,0.188-0.2,0.318-0.153c0.131,0.046,0.198,0.189,0.152,0.319l-0.133,0.376 C60.991,66.82,60.895,66.884,60.792,66.884z"></path></g></g><g><path fill="#fbcd59" d="M50.499,25.744c-9.254-0.003-16.759,7.496-16.762,16.75c-0.003,9.254,7.496,16.759,16.75,16.762 c0.004,0,0.008,0,0.012,0c9.254,0.003,16.759-7.496,16.762-16.75s-7.496-16.759-16.75-16.762 C50.508,25.744,50.504,25.744,50.499,25.744z"></path><path fill="#472b29" d="M50.499,60C40.851,60,33,52.149,33,42.5S40.851,25,50.499,25C60.149,25,68,32.851,68,42.5 S60.149,60,50.499,60z M50.499,26.487c-8.829,0-16.011,7.183-16.011,16.013s7.183,16.013,16.011,16.013S66.512,51.329,66.512,42.5 S59.328,26.487,50.499,26.487z"></path></g><g><path fill="#472b29" d="M63.98,47.548c-0.03,0-0.06-0.005-0.089-0.016c-0.138-0.049-0.21-0.2-0.16-0.339 c0.541-1.509,0.815-3.094,0.815-4.709c0-7.698-6.263-13.962-13.962-13.962c-0.146,0-0.265-0.119-0.265-0.265 s0.119-0.265,0.265-0.265c7.991,0,14.492,6.5,14.492,14.492c0,1.677-0.285,3.321-0.845,4.888 C64.191,47.482,64.088,47.548,63.98,47.548z M41.877,54.002c-0.057,0-0.113-0.018-0.162-0.055 c-3.573-2.769-5.623-6.947-5.623-11.462c0-4.792,2.365-9.268,6.328-11.974c0.121-0.083,0.286-0.052,0.368,0.069 c0.083,0.121,0.052,0.286-0.069,0.369c-3.817,2.607-6.095,6.919-6.095,11.535c0,4.351,1.975,8.375,5.418,11.043 c0.116,0.089,0.137,0.257,0.047,0.372C42.034,53.967,41.956,54.002,41.877,54.002z M44.265,55.5c-0.039,0-0.08-0.008-0.118-0.028 c-0.373-0.185-0.739-0.387-1.09-0.601c-0.125-0.076-0.164-0.24-0.089-0.364c0.077-0.127,0.243-0.164,0.365-0.088 c0.338,0.206,0.692,0.401,1.051,0.579c0.132,0.065,0.185,0.224,0.119,0.355C44.455,55.446,44.362,55.5,44.265,55.5z M50.583,56.976c-1.466,0-2.913-0.218-4.304-0.65c-0.14-0.043-0.217-0.192-0.174-0.332c0.043-0.139,0.192-0.218,0.331-0.175 c1.338,0.416,2.733,0.626,4.146,0.626c0.146,0,0.265,0.119,0.265,0.265C50.847,56.856,50.728,56.976,50.583,56.976z"></path></g><g><path fill="#e0a825" d="M50.578,36.788l1.851,3.749l4.138,0.601l-2.994,2.919l0.707,4.122l-3.702-1.947l-3.701,1.947 l0.707-4.122l-2.995-2.919l4.138-0.601L50.578,36.788z"></path><path fill="#472b29" d="M46.876,48.615c-0.089,0-0.18-0.027-0.256-0.083c-0.133-0.098-0.2-0.262-0.173-0.425l0.668-3.896 l-2.83-2.76c-0.119-0.116-0.162-0.288-0.111-0.446c0.051-0.157,0.186-0.272,0.35-0.296l3.912-0.569l1.749-3.546 c0.145-0.297,0.634-0.297,0.779,0l1.75,3.546l3.912,0.569c0.164,0.024,0.299,0.138,0.35,0.296c0.051,0.158,0.009,0.33-0.111,0.446 l-2.83,2.76l0.668,3.896c0.027,0.163-0.039,0.328-0.173,0.425c-0.135,0.098-0.311,0.109-0.458,0.034l-3.497-1.84l-3.498,1.839 C47.015,48.599,46.946,48.615,46.876,48.615z M50.578,45.799c0.07,0,0.139,0.017,0.202,0.05l2.923,1.537l-0.558-3.254 c-0.025-0.14,0.022-0.284,0.125-0.385l2.363-2.305l-3.267-0.475c-0.14-0.021-0.263-0.109-0.327-0.237l-1.462-2.959l-1.461,2.959 c-0.063,0.129-0.185,0.217-0.327,0.237l-3.267,0.475l2.363,2.305c0.103,0.099,0.149,0.243,0.125,0.385l-0.558,3.254l2.922-1.536 C50.438,45.816,50.509,45.799,50.578,45.799z"></path></g><g><path fill="#f1bc19" d="M74.591,42.878l0.89,1.802l1.989,0.289l-1.439,1.403l0.34,1.981l-1.78-0.935l-1.779,0.935 l0.34-1.981l-1.439-1.403l1.989-0.289L74.591,42.878z"></path><path fill="#472b29" d="M76.371,48.703c-0.056,0-0.111-0.013-0.163-0.04l-1.616-0.85l-1.616,0.85 c-0.118,0.062-0.26,0.052-0.369-0.027c-0.107-0.079-0.161-0.211-0.139-0.342l0.309-1.8l-1.308-1.274 c-0.096-0.093-0.13-0.232-0.089-0.358c0.041-0.127,0.15-0.219,0.282-0.238l1.808-0.263l0.809-1.637 c0.117-0.239,0.51-0.239,0.627,0l0.809,1.637l1.808,0.263c0.132,0.019,0.241,0.111,0.282,0.238 c0.041,0.126,0.007,0.266-0.089,0.358l-1.308,1.274l0.309,1.8c0.022,0.131-0.031,0.264-0.139,0.342 C76.515,48.681,76.443,48.703,76.371,48.703z M74.591,47.068c0.056,0,0.112,0.014,0.163,0.04l1.151,0.605l-0.22-1.282 c-0.02-0.113,0.018-0.229,0.101-0.31l0.932-0.908l-1.288-0.187c-0.113-0.017-0.212-0.088-0.263-0.191l-0.576-1.167l-0.576,1.167 c-0.051,0.104-0.149,0.175-0.263,0.191l-1.288,0.187l0.932,0.908c0.083,0.08,0.12,0.196,0.101,0.31l-0.22,1.282l1.151-0.605 C74.479,47.081,74.536,47.068,74.591,47.068z"></path></g><g><path fill="#f1bc19" d="M27.121,29.995l1.359,2.754l3.039,0.442l-2.199,2.143l0.519,3.027l-2.718-1.429l-2.718,1.429 l0.519-3.027l-2.199-2.143l3.039-0.442L27.121,29.995z"></path><path fill="#472b29" d="M29.84,38.711c-0.056,0-0.111-0.013-0.163-0.041l-2.556-1.343l-2.555,1.343 c-0.119,0.062-0.261,0.053-0.369-0.026c-0.107-0.078-0.161-0.211-0.139-0.342l0.487-2.846l-2.066-2.015 c-0.096-0.093-0.13-0.232-0.089-0.359c0.041-0.126,0.15-0.219,0.282-0.238l2.856-0.415l1.278-2.589 c0.117-0.239,0.51-0.239,0.627,0l1.278,2.589l2.857,0.415c0.132,0.019,0.241,0.111,0.282,0.238 c0.041,0.127,0.007,0.266-0.089,0.359l-2.067,2.015l0.488,2.846c0.022,0.131-0.031,0.264-0.139,0.342 C29.984,38.689,29.912,38.711,29.84,38.711z M23.475,33.435l1.69,1.648c0.083,0.08,0.12,0.196,0.101,0.31l-0.398,2.328l2.09-1.099 c0.102-0.054,0.225-0.054,0.326,0l2.091,1.099l-0.399-2.328c-0.02-0.113,0.018-0.229,0.101-0.31l1.691-1.648l-2.338-0.34 c-0.113-0.017-0.212-0.088-0.263-0.191l-1.046-2.118l-1.046,2.118c-0.051,0.104-0.149,0.175-0.263,0.191L23.475,33.435z"></path></g><g><path fill="#f1bc19" d="M46.287,70.976l1.099,2.227l2.459,0.358l-1.779,1.734l0.42,2.449l-2.199-1.157l-2.199,1.157 l0.42-2.449l-1.779-1.734l2.458-0.358L46.287,70.976z"></path><path fill="#472b29" d="M48.486,78.094c-0.056,0-0.111-0.013-0.163-0.041l-2.036-1.07l-2.036,1.07 c-0.118,0.062-0.261,0.052-0.369-0.026c-0.107-0.078-0.161-0.211-0.139-0.342l0.389-2.268l-1.647-1.605 c-0.096-0.093-0.13-0.232-0.089-0.358c0.041-0.127,0.15-0.219,0.282-0.238l2.277-0.331l1.019-2.063 c0.117-0.239,0.51-0.239,0.627,0l1.019,2.063l2.277,0.331c0.132,0.019,0.241,0.111,0.282,0.238 c0.041,0.126,0.007,0.266-0.089,0.358l-1.647,1.605l0.389,2.268c0.022,0.131-0.031,0.264-0.139,0.342 C48.631,78.071,48.558,78.094,48.486,78.094z M46.287,76.237c0.056,0,0.112,0.014,0.163,0.041l1.571,0.826l-0.3-1.75 c-0.02-0.113,0.018-0.229,0.101-0.31l1.271-1.239l-1.758-0.255c-0.113-0.017-0.212-0.088-0.263-0.191l-0.786-1.592L45.5,73.359 c-0.051,0.104-0.149,0.175-0.263,0.191l-1.758,0.255l1.271,1.239c0.083,0.08,0.12,0.196,0.101,0.31l-0.3,1.75l1.571-0.826 C46.174,76.251,46.231,76.237,46.287,76.237z"></path></g>
</svg>
