<svg xmlns="http://www.w3.org/2000/svg" x="0px" y="0px" width="50" height="50" viewBox="0 0 100 100">
<circle cx="78" cy="14" r="1" fill="#f1bc19"></circle><circle cx="50" cy="50" r="38" fill="#f9dbd2"></circle><circle cx="84" cy="16" r="4" fill="#f1bc19"></circle><circle cx="14" cy="26" r="2" fill="#ee3e54"></circle><circle cx="78" cy="77" r="2" fill="#fbcd59"></circle><circle cx="17" cy="78" r="4" fill="#fbcd59"></circle><circle cx="24" cy="83" r="2" fill="#ee3e54"></circle><circle cx="66.483" cy="78.517" r="2.483" fill="#fff"></circle><circle cx="16" cy="48" r="1" fill="#fff"></circle><circle cx="86" cy="31" r="1" fill="#f1bc19"></circle><circle cx="80" cy="66" r="2" fill="#fff"></circle><path fill="#836f61" d="M24.537,70.96c-0.748,0-1.451-0.291-1.98-0.82c-1.092-1.092-1.092-2.868,0-3.96l11.879-11.879 l3.96,3.96L26.517,70.14C25.988,70.669,25.285,70.96,24.537,70.96z"></path><path fill="#472b29" d="M34.436,55.291l2.97,2.97L26.022,69.645c-0.397,0.397-0.924,0.615-1.485,0.615 c-0.561,0-1.088-0.218-1.485-0.615c-0.397-0.396-0.615-0.924-0.615-1.485c0-0.561,0.218-1.088,0.615-1.485L34.436,55.291 M34.436,53.311L22.062,65.685c-1.367,1.367-1.367,3.583,0,4.95c0.683,0.683,1.579,1.025,2.475,1.025 c0.896,0,1.791-0.342,2.475-1.025L39.386,58.26L34.436,53.311L34.436,53.311z"></path><g><path fill="#c5def0" d="M34.012,54.725C47.325,41.407,58.205,30.31,65.955,20.217l0.619,2.27 c0.665,2.438,0.136,5.059-1.414,7.013c-5.175,6.521-13.822,15.805-27.188,29.186L34.012,54.725z"></path><path fill="#472b29" d="M65.648,21.754l0.25,0.917c0.606,2.223,0.125,4.613-1.287,6.393 c-5.092,6.417-13.572,15.533-26.64,28.631l-2.969-2.969C47.626,42.09,58.038,31.453,65.648,21.754 M66.256,18.663 c-7.778,10.371-19.092,21.92-33.234,36.063l4.95,4.95c13.223-13.223,22.325-22.922,27.736-29.741 c1.704-2.147,2.262-4.987,1.541-7.631L66.256,18.663L66.256,18.663z"></path></g><g><path fill="#472b29" d="M40.093,61.789c-0.179,0-0.358-0.068-0.495-0.205l-8.485-8.485c-0.273-0.273-0.273-0.717,0-0.99 s0.717-0.273,0.99,0l8.485,8.485c0.273,0.273,0.273,0.717,0,0.99C40.452,61.721,40.272,61.789,40.093,61.789z"></path></g><g><path fill="#472b29" d="M38.414,54.621c-0.064,0-0.128-0.024-0.177-0.073c-0.098-0.098-0.098-0.256,0-0.354 c1.845-1.845,5.833-5.926,10.229-10.526c0.095-0.098,0.254-0.102,0.354-0.008c0.1,0.096,0.104,0.254,0.008,0.354 c-4.398,4.604-8.39,8.688-10.237,10.534C38.542,54.597,38.478,54.621,38.414,54.621z"></path></g><g><path fill="#472b29" d="M50.342,42.313c-0.062,0-0.124-0.022-0.172-0.068c-0.1-0.096-0.104-0.254-0.009-0.354 c1.115-1.174,2.233-2.357,3.331-3.526c0.094-0.102,0.253-0.104,0.353-0.012c0.101,0.095,0.106,0.253,0.011,0.354 c-1.098,1.171-2.216,2.354-3.333,3.528C50.474,42.286,50.408,42.313,50.342,42.313z"></path></g><g><path fill="#472b29" d="M55.54,36.787c-0.061,0-0.122-0.022-0.17-0.067c-0.101-0.094-0.107-0.252-0.013-0.353 c3.763-4.048,6.405-7.017,7.853-8.823c0.088-0.106,0.245-0.124,0.352-0.039c0.108,0.087,0.125,0.244,0.039,0.352 c-1.456,1.816-4.106,4.795-7.877,8.851C55.674,36.761,55.607,36.787,55.54,36.787z"></path></g><g><path fill="#472b29" d="M32.315,64.285c-0.132,0-0.242-0.104-0.25-0.236l-0.187-3.393c-0.008-0.138,0.098-0.256,0.236-0.264 c0.004,0,0.009,0,0.014,0c0.132,0,0.242,0.104,0.25,0.236l0.187,3.393c0.008,0.138-0.098,0.256-0.236,0.264 C32.324,64.285,32.319,64.285,32.315,64.285z"></path></g><g><path fill="#472b29" d="M32.045,59.393c-0.132,0-0.242-0.104-0.25-0.236l-0.143-2.591c-0.008-0.138,0.098-0.256,0.236-0.264 c0.145,0,0.256,0.1,0.263,0.236l0.143,2.591c0.008,0.138-0.098,0.256-0.236,0.264C32.055,59.393,32.05,59.393,32.045,59.393z"></path></g><g><path fill="#472b29" d="M27.365,69.234c-0.132,0-0.242-0.104-0.25-0.236l-0.193-3.506c-0.008-0.138,0.098-0.256,0.236-0.264 c0.137,0.004,0.256,0.1,0.263,0.236l0.193,3.506c0.008,0.138-0.098,0.256-0.236,0.264C27.375,69.234,27.37,69.234,27.365,69.234z"></path></g><g><path fill="#472b29" d="M27.085,64.163c-0.132,0-0.242-0.104-0.25-0.236l-0.133-2.412c-0.008-0.138,0.098-0.256,0.236-0.264 c0.145,0.016,0.256,0.1,0.263,0.236l0.133,2.412c0.008,0.138-0.098,0.256-0.236,0.264C27.095,64.163,27.09,64.163,27.085,64.163z"></path></g><g><path fill="#836f61" d="M34.045,73.656c12.772-11.178,25.089-24.176,37.631-39.71c0.258-0.319,0.573-0.487,0.963-0.513 c0.671-0.044,1.533,0.352,2.25,1.033c0.966,0.918,1.656,2.342,0.885,3.3C64.912,51.664,52.21,65.063,38.009,77.603L34.045,73.656z"></path><rect width="5.438" height="5.188" x="39.765" y="67.159" fill="#ee3e54" transform="rotate(43.533 42.482 69.75)"></rect><path fill="#472b29" d="M74.407,34.974L74.407,34.974c0.746,0.709,1.288,1.775,0.81,2.369 C64.512,51.04,52.008,64.256,38.037,76.644l-2.967-2.955c12.602-11.093,24.768-23.964,37.151-39.302 c0.136-0.168,0.27-0.242,0.464-0.255C73.16,34.101,73.836,34.431,74.407,34.974 M75.372,33.959c-1.292-1.227-3.151-1.8-4.24-0.452 C59.604,47.785,47.066,61.402,33.019,73.623l4.96,4.939c14.122-12.42,27.073-25.94,38.341-40.357 C77.338,36.941,76.62,35.145,75.372,33.959L75.372,33.959z"></path><path fill="#472b29" d="M43.93,67.8c-0.062,0-0.124-0.022-0.172-0.068l-1.677-1.593c-0.1-0.096-0.104-0.254-0.009-0.354 s0.254-0.104,0.354-0.01l1.677,1.593c0.1,0.096,0.104,0.254,0.009,0.354C44.063,67.773,43.996,67.8,43.93,67.8z"></path><path fill="#472b29" d="M40.332,71.45c-0.062,0-0.124-0.022-0.172-0.068l-1.676-1.593c-0.1-0.096-0.104-0.254-0.009-0.354 s0.254-0.104,0.354-0.01l1.676,1.593c0.1,0.096,0.104,0.254,0.009,0.354C40.464,71.424,40.398,71.45,40.332,71.45z"></path><path fill="#472b29" d="M46.671,70.404c-0.062,0-0.124-0.022-0.172-0.068l-1.677-1.593c-0.1-0.096-0.104-0.254-0.009-0.354 s0.254-0.104,0.354-0.01l1.677,1.593c0.1,0.096,0.104,0.254,0.009,0.354C46.804,70.378,46.737,70.404,46.671,70.404z"></path><path fill="#472b29" d="M42.849,73.928c-0.062,0-0.124-0.022-0.172-0.068L41,72.267c-0.1-0.096-0.104-0.254-0.009-0.354 s0.254-0.104,0.354-0.01l1.677,1.593c0.1,0.096,0.104,0.254,0.009,0.354C42.981,73.901,42.915,73.928,42.849,73.928z"></path></g>
</svg>
