<svg xmlns="http://www.w3.org/2000/svg" x="0px" y="0px" width="50" height="50" viewBox="0 0 100 100">
<path fill="#78a0cf" d="M13,27.007c-1.105,0-2,0.895-2,2s0.895,2,2,2s2-0.895,2-2S14.105,27.007,13,27.007z"></path><path fill="#f1bc19" d="M77,12.007c-0.551,0-1,0.449-1,1s0.449,1,1,1s1-0.449,1-1S77.551,12.007,77,12.007z"></path><path fill="#cee1f4" d="M50,13.007c-20.434,0-37,16.566-37,37s16.566,37,37,37s37-16.566,37-37S70.434,13.007,50,13.007z"></path><path fill="#f1bc19" d="M83,11.007c-2.211,0-4,1.789-4,4s1.789,4,4,4s4-1.789,4-4S85.211,11.007,83,11.007z"></path><path fill="#78a0cf" d="M87,22.007c-1.105,0-2,0.895-2,2s0.895,2,2,2s2-0.895,2-2S88.105,22.007,87,22.007z"></path><path fill="#fbcd59" d="M81,74.007c-1.105,0-2,0.895-2,2s0.895,2,2,2s2-0.895,2-2S82.105,74.007,81,74.007z M15,59.007 c-2.211,0-4,1.789-4,4c0,2.211,1.789,4,4,4s4-1.789,4-4C19,60.796,17.211,59.007,15,59.007z"></path><path fill="#78a0cf" d="M25,85.007c-1.105,0-2,0.895-2,2s0.895,2,2,2s2-0.895,2-2S26.105,85.007,25,85.007z"></path><path fill="#fff" d="M17.5,42.007c-1.379,0-2.5,1.121-2.5,2.5s1.121,2.5,2.5,2.5s2.5-1.121,2.5-2.5 S18.879,42.007,17.5,42.007z"></path><path fill="#f1bc19" d="M21,65.007c-0.551,0-1,0.449-1,1s0.449,1,1,1s1-0.449,1-1S21.551,65.007,21,65.007z"></path><path fill="#fff" d="M82,37.007c-0.551,0-1,0.449-1,1s0.449,1,1,1s1-0.449,1-1S82.551,37.007,82,37.007z"></path><polygon fill="#eab436" points="76.089,40.754 76.091,40.752 76.025,40.252 74.207,38.405 25.814,38.405 23.962,40.252 23.956,40.752 23.958,40.754"></polygon><polygon fill="#ce942b" points="23.958,40.754 25.792,42.6 29.299,42.6 70.71,42.6 74.213,42.6 76.089,40.754"></polygon><rect width="41.461" height="22.045" x="29.18" y="43.371" fill="#e0a825"></rect><rect width="3.573" height="27" x="25.607" y="43.371" fill="#eab436"></rect><rect width="3.573" height="27" x="70.72" y="43.371" fill="#eab436"></rect><rect width="30.944" height="13.489" x="34.539" y="47.25" fill="#ce942b"></rect><rect width="58.506" height="3.197" x="21.494" y="52.303" fill="#eab436"></rect><g><path fill="#472b29" d="M34.5,40.75h2c0.138,0,0.25-0.112,0.25-0.25s-0.112-0.25-0.25-0.25h-2 c-0.138,0-0.25,0.112-0.25,0.25S34.362,40.75,34.5,40.75z"></path><path fill="#472b29" d="M54.5,47.75h2c0.138,0,0.25-0.112,0.25-0.25s-0.112-0.25-0.25-0.25h-2 c-0.138,0-0.25,0.112-0.25,0.25S54.362,47.75,54.5,47.75z"></path></g><path fill="#f1bc19" d="M66.026,33.852c0.142-0.143,0.184-0.358,0.106-0.544C66.055,33.121,65.873,33,65.671,33 c-10.022,0-12.604-2.786-13.252-4h9.569c0.179,0,0.344-0.096,0.434-0.251s0.088-0.346-0.001-0.501 c-0.139-0.238-0.209-0.49-0.209-0.748c0-0.827,0.673-1.5,1.5-1.5c0.307,0,0.604,0.095,0.86,0.275 c0.017,0.011,0.033,0.022,0.051,0.031l3.684,2.528l1.905,4.762V37h-7.301L66.026,33.852z"></path><path fill="#f1bc19" d="M30,33.596l1.905-4.762l3.682-2.526c0.018-0.01,0.036-0.021,0.054-0.033 C35.896,26.095,36.193,26,36.5,26c0.827,0,1.5,0.673,1.5,1.5c0,0.258-0.07,0.51-0.209,0.748c-0.09,0.155-0.091,0.346-0.001,0.501 S38.043,29,38.223,29h9.569c-0.649,1.214-3.231,4-13.253,4c-0.202,0-0.384,0.121-0.461,0.308c-0.078,0.186-0.036,0.401,0.106,0.544 L37.301,37H30V33.596z"></path><rect width="3.775" height="7.228" x="25.607" y="50.25" fill="#f1bc19"></rect><rect width="3.775" height="7.228" x="70.618" y="50.25" fill="#f1bc19"></rect><path fill="#472b29" d="M79.5,52h-4.498v-8.212l2.787-2.742c0.133-0.13,0.208-0.308,0.209-0.494 c0.001-0.186-0.071-0.364-0.201-0.497l-2.798-2.842c-0.132-0.133-0.312-0.209-0.499-0.209h-3.29V33.5 c0-0.063-0.012-0.126-0.036-0.186l-2-5c-0.037-0.092-0.164-0.209-0.246-0.265l-3.787-2.599c-0.015-0.011-0.03-0.02-0.046-0.028 C64.682,25.146,64.204,25,63.71,25c-1.378,0-2.5,1.122-2.5,2.5c0,0.169,0.018,0.336,0.052,0.5H51.71 c-0.141,0-0.275,0.059-0.37,0.163s-0.141,0.243-0.128,0.383c0.02,0.216,0.625,5.15,13.273,5.441l-2.988,3.018H38.714l-2.989-3.018 c12.648-0.291,13.253-5.225,13.273-5.441c0.013-0.14-0.034-0.279-0.128-0.383S48.641,28,48.5,28h-9.552 C38.982,27.836,39,27.669,39,27.5c0-1.378-1.122-2.5-2.5-2.5c-0.493,0-0.97,0.146-1.383,0.421c-0.017,0.009-0.033,0.019-0.049,0.03 l-3.825,2.62c-0.094,0.056-0.167,0.142-0.207,0.243l-2,5C29.012,33.374,29,33.437,29,33.5v3.505h-3.476 c-0.186,0-0.363,0.074-0.495,0.205l-2.804,2.797c-0.273,0.273-0.274,0.715-0.002,0.989l2.779,2.797 c0.001,0.001,0.003,0.002,0.005,0.003V52H21.5c-0.276,0-0.5,0.224-0.5,0.5v3c0,0.276,0.224,0.5,0.5,0.5h3.508v14.3 c0,0.387,0.313,0.7,0.7,0.7h3.591c0.387,0,0.7-0.313,0.7-0.7V66H70.01v4.3c0,0.387,0.313,0.7,0.7,0.7h3.591 c0.387,0,0.7-0.313,0.7-0.7V56H79.5c0.276,0,0.5-0.224,0.5-0.5v-3C80,52.224,79.776,52,79.5,52z M25.008,55H22v-2h3.008V55z M66.026,33.852c0.142-0.143,0.184-0.358,0.106-0.544C66.055,33.121,65.873,33,65.671,33c-10.022,0-12.604-2.786-13.252-4h9.569 c0.179,0,0.344-0.096,0.434-0.251s0.088-0.346-0.001-0.501c-0.139-0.238-0.209-0.49-0.209-0.748c0-0.827,0.673-1.5,1.5-1.5 c0.307,0,0.604,0.095,0.86,0.275c0.017,0.011,0.033,0.022,0.051,0.031l3.684,2.528l1.905,4.762V37h-7.301L66.026,33.852z M30,33.596l1.905-4.762l3.682-2.526c0.018-0.01,0.036-0.021,0.054-0.033C35.896,26.095,36.193,26,36.5,26 c0.827,0,1.5,0.673,1.5,1.5c0,0.258-0.07,0.51-0.209,0.748c-0.09,0.155-0.091,0.346-0.001,0.501S38.043,29,38.223,29h9.569 c-0.649,1.214-3.231,4-13.253,4c-0.202,0-0.384,0.121-0.461,0.308c-0.078,0.186-0.036,0.401,0.106,0.544L37.301,37H30V33.596z M28.599,69.6h-2.19V57.75h2.19V69.6z M28.599,57.25h-2.19v-6.5h2.19V57.25z M28.599,50.25h-2.19V44h2.19V50.25z M70.01,64.6H30V56 h4.25v4.5c0,0.138,0.112,0.25,0.25,0.25h5c0.138,0,0.25-0.112,0.25-0.25s-0.112-0.25-0.25-0.25h-4.75V56h30.5v4.25H42.5 c-0.138,0-0.25,0.112-0.25,0.25s0.112,0.25,0.25,0.25h23c0.138,0,0.25-0.112,0.25-0.25V56h4.26V64.6z M70.01,55H30v-2H70.01V55z M70.01,52h-4.26v-4.5c0-0.138-0.112-0.25-0.25-0.25h-6c-0.138,0-0.25,0.112-0.25,0.25s0.112,0.25,0.25,0.25h5.75V52h-30.5v-4.25 H51.5c0.138,0,0.25-0.112,0.25-0.25s-0.112-0.25-0.25-0.25h-17c-0.138,0-0.25,0.112-0.25,0.25V52H30v-8H70.01V52z M73.602,69.6 h-2.191V57.75h2.191V69.6z M73.602,57.25h-2.191v-6.5h2.191V57.25z M73.602,50.25h-2.191V44h2.191V50.25z M74.213,42.6H70.71 H29.299h-3.508l-1.836-1.847L32.5,40.75c0.138,0,0.25-0.112,0.25-0.25s-0.112-0.25-0.25-0.25l-8.538,0.002l1.852-1.847h48.393 l1.818,1.847L38.5,40.25c-0.138,0-0.25,0.112-0.25,0.25s0.112,0.25,0.25,0.25l37.591,0.002L74.213,42.6z M79,55h-3.998v-2H79V55z"></path>
</svg>
