<svg xmlns="http://www.w3.org/2000/svg" x="0px" y="0px" width="50" height="50" viewBox="0 0 100 100">
<path fill="#78a0cf" d="M13 27A2 2 0 1 0 13 31A2 2 0 1 0 13 27Z"></path><path fill="#f1bc19" d="M77 12A1 1 0 1 0 77 14A1 1 0 1 0 77 12Z"></path><path fill="#cee1f4" d="M50 13A37 37 0 1 0 50 87A37 37 0 1 0 50 13Z"></path><path fill="#f1bc19" d="M83 11A4 4 0 1 0 83 19A4 4 0 1 0 83 11Z"></path><path fill="#78a0cf" d="M87 22A2 2 0 1 0 87 26A2 2 0 1 0 87 22Z"></path><path fill="#fbcd59" d="M81 74A2 2 0 1 0 81 78 2 2 0 1 0 81 74zM15 59A4 4 0 1 0 15 67 4 4 0 1 0 15 59z"></path><path fill="#78a0cf" d="M25 85A2 2 0 1 0 25 89A2 2 0 1 0 25 85Z"></path><path fill="#fff" d="M18.5 51A2.5 2.5 0 1 0 18.5 56A2.5 2.5 0 1 0 18.5 51Z"></path><path fill="#f1bc19" d="M21 66A1 1 0 1 0 21 68A1 1 0 1 0 21 66Z"></path><path fill="#fff" d="M80 33A1 1 0 1 0 80 35A1 1 0 1 0 80 33Z"></path><path fill="#f8e55b" d="M38.994 30.056H41.837V32.899H38.994z" transform="rotate(-22.898 40.415 31.477)"></path><path fill="#472b29" d="M39.393,33.996l-1.496-3.54l3.541-1.496l1.495,3.54L39.393,33.996z M39.208,30.987l0.717,1.698 l1.697-0.717l-0.717-1.698L39.208,30.987z"></path><path fill="#f8e55b" d="M57.198 30.056H60.041V32.899H57.198z" transform="rotate(-67.101 58.62 31.478)"></path><path fill="#472b29" d="M59.642,33.996l-3.54-1.496l1.495-3.54l3.541,1.496L59.642,33.996z M57.412,31.969l1.697,0.717 l0.717-1.698l-1.698-0.717L57.412,31.969z"></path><path fill="#f8e55b" d="M52.844,26.745c-0.099,0.236-0.181,0.474-0.252,0.713l12.968,5.407 c0.12-0.219,0.23-0.445,0.329-0.681c1.502-3.603-0.201-7.74-3.803-9.242C58.483,21.44,54.345,23.143,52.844,26.745z"></path><path fill="#472b29" d="M65.782,33.5l-13.798-5.752l0.127-0.431c0.076-0.257,0.165-0.512,0.271-0.765 c0.778-1.865,2.235-3.316,4.104-4.085c1.87-0.77,3.926-0.764,5.791,0.013c3.851,1.606,5.678,6.046,4.072,9.896 c-0.105,0.252-0.224,0.494-0.352,0.729L65.782,33.5z M53.211,27.176l12.112,5.05c0.036-0.077,0.07-0.155,0.104-0.234 c1.393-3.341-0.192-7.193-3.535-8.587c-1.619-0.676-3.404-0.68-5.026-0.012c-1.622,0.667-2.887,1.926-3.562,3.545l0,0 C53.272,27.017,53.241,27.097,53.211,27.176z"></path><path fill="#7782ac" d="M61.034,69.244l3.836,5.875c0.195,0.424,0.69,0.605,1.101,0.404l0,0 c0.411-0.201,0.587-0.712,0.392-1.136L63.417,67"></path><path fill="#472b29" d="M65.62,76.105c-0.147,0-0.295-0.025-0.439-0.077c-0.34-0.121-0.611-0.37-0.764-0.701l-3.801-5.81 l0.837-0.547l3.836,5.874c0.075,0.148,0.143,0.212,0.227,0.241c0.078,0.029,0.162,0.023,0.236-0.013 c0.167-0.082,0.239-0.301,0.158-0.478l-2.957-7.41l0.929-0.371l2.946,7.387c0.297,0.646,0.017,1.45-0.637,1.771 C66.01,76.061,65.815,76.105,65.62,76.105z"></path><path fill="#f8e55b" d="M36.949,22.942c-3.602,1.502-5.305,5.639-3.803,9.242c0.099,0.236,0.209,0.462,0.329,0.681 l12.968-5.407c-0.071-0.24-0.154-0.478-0.252-0.713C44.689,23.143,40.551,21.44,36.949,22.942z"></path><path fill="#472b29" d="M33.253,33.5l-0.216-0.395c-0.128-0.233-0.246-0.476-0.352-0.728 c-1.606-3.852,0.221-8.291,4.072-9.897c3.852-1.604,8.29,0.221,9.896,4.072c0.105,0.253,0.194,0.508,0.27,0.764l0.128,0.431 L33.253,33.5z M39.66,22.898c-0.841,0-1.695,0.162-2.518,0.506c-3.342,1.394-4.927,5.246-3.534,8.588 c0.033,0.079,0.067,0.156,0.104,0.233l12.112-5.05c-0.029-0.079-0.06-0.159-0.093-0.238C44.679,24.419,42.232,22.898,39.66,22.898z"></path><path fill="#7782ac" d="M35.617,67l-2.946,7.387c-0.195,0.424-0.019,0.934,0.392,1.136l0,0 c0.411,0.201,0.906,0.02,1.101-0.404L38,69.244"></path><path fill="#472b29" d="M33.415,76.105c-0.196,0-0.391-0.045-0.572-0.134c-0.654-0.32-0.935-1.125-0.626-1.794l2.936-7.363 l0.929,0.371l-2.946,7.387c-0.092,0.201-0.02,0.419,0.147,0.501c0.074,0.037,0.159,0.043,0.236,0.013 c0.084-0.029,0.151-0.093,0.19-0.177l3.872-5.938l0.837,0.547l-3.836,5.874c-0.116,0.267-0.387,0.516-0.727,0.637 C33.711,76.079,33.563,76.105,33.415,76.105z"></path><g><path fill="#f27c7d" d="M49.5 30.7A20.8 20.8 0 1 0 49.5 72.3A20.8 20.8 0 1 0 49.5 30.7Z"></path><path fill="#472b29" d="M49.5,31.4c11.083,0,20.1,9.017,20.1,20.1s-9.017,20.1-20.1,20.1s-20.1-9.017-20.1-20.1 S38.417,31.4,49.5,31.4 M49.5,30C37.626,30,28,39.626,28,51.5S37.626,73,49.5,73S71,63.374,71,51.5S61.374,30,49.5,30L49.5,30z"></path></g><g><path fill="#fffef4" d="M49.5 34A17.5 17.5 0 1 0 49.5 69A17.5 17.5 0 1 0 49.5 34Z"></path></g><g><path fill="#472b29" d="M66.65,48.502c-0.233,0-0.441-0.163-0.49-0.4c-0.22-1.083-0.547-2.148-0.974-3.167 c-0.107-0.255,0.013-0.548,0.268-0.654c0.253-0.106,0.548,0.014,0.654,0.268c0.452,1.079,0.8,2.207,1.033,3.354 c0.055,0.271-0.12,0.535-0.391,0.59C66.716,48.499,66.683,48.502,66.65,48.502z"></path></g><g><path fill="#472b29" d="M49.5,69.5c-9.925,0-18-8.075-18-18s8.075-18,18-18c6.348,0,12.106,3.245,15.403,8.681 c0.143,0.235,0.068,0.543-0.168,0.687c-0.236,0.143-0.543,0.068-0.687-0.169C60.934,37.565,55.496,34.5,49.5,34.5 c-9.374,0-17,7.626-17,17s7.626,17,17,17s17-7.626,17-17c0-0.276,0.224-0.5,0.5-0.5s0.5,0.224,0.5,0.5 C67.5,61.425,59.425,69.5,49.5,69.5z"></path></g><g><path fill="#fff" d="M49.5 50A1.5 1.5 0 1 0 49.5 53A1.5 1.5 0 1 0 49.5 50Z"></path><path fill="#472b29" d="M49.5,53.5c-1.103,0-2-0.897-2-2s0.897-2,2-2s2,0.897,2,2S50.603,53.5,49.5,53.5z M49.5,50.5 c-0.551,0-1,0.448-1,1s0.449,1,1,1s1-0.448,1-1S50.051,50.5,49.5,50.5z"></path></g><g><path fill="#472b29" d="M49.5,38c-0.276,0-0.5-0.224-0.5-0.5v-3c0-0.276,0.224-0.5,0.5-0.5s0.5,0.224,0.5,0.5v3 C50,37.776,49.776,38,49.5,38z"></path></g><g><path fill="#472b29" d="M49.5,69c-0.276,0-0.5-0.224-0.5-0.5v-3c0-0.276,0.224-0.5,0.5-0.5s0.5,0.224,0.5,0.5v3 C50,68.776,49.776,69,49.5,69z"></path></g><g><path fill="#472b29" d="M39.601,42.101c-0.128,0-0.256-0.049-0.354-0.146l-2.122-2.121c-0.195-0.195-0.195-0.512,0-0.707 s0.512-0.195,0.707,0l2.122,2.121c0.195,0.195,0.195,0.512,0,0.707C39.856,42.052,39.729,42.101,39.601,42.101z"></path></g><g><path fill="#472b29" d="M61.521,64.021c-0.128,0-0.256-0.049-0.354-0.146l-2.122-2.121c-0.195-0.195-0.195-0.512,0-0.707 s0.512-0.195,0.707,0l2.122,2.121c0.195,0.195,0.195,0.512,0,0.707C61.777,63.972,61.649,64.021,61.521,64.021z"></path></g><g><path fill="#472b29" d="M35.5,52h-3c-0.276,0-0.5-0.224-0.5-0.5s0.224-0.5,0.5-0.5h3c0.276,0,0.5,0.224,0.5,0.5 S35.776,52,35.5,52z"></path></g><g><path fill="#472b29" d="M66.5,52h-3c-0.276,0-0.5-0.224-0.5-0.5s0.224-0.5,0.5-0.5h3c0.276,0,0.5,0.224,0.5,0.5 S66.776,52,66.5,52z"></path></g><g><path fill="#472b29" d="M60.5,52h-9c-0.276,0-0.5-0.224-0.5-0.5s0.224-0.5,0.5-0.5h9c0.276,0,0.5,0.224,0.5,0.5 S60.776,52,60.5,52z"></path></g><g><path fill="#472b29" d="M59.399,42.101c-0.128,0-0.256-0.049-0.354-0.146c-0.195-0.195-0.195-0.512,0-0.707l2.122-2.121 c0.195-0.195,0.512-0.195,0.707,0s0.195,0.512,0,0.707l-2.122,2.121C59.655,42.052,59.527,42.101,59.399,42.101z"></path></g><g><path fill="#472b29" d="M37.479,64.021c-0.128,0-0.256-0.049-0.354-0.146c-0.195-0.195-0.195-0.512,0-0.707l2.122-2.121 c0.195-0.195,0.512-0.195,0.707,0s0.195,0.512,0,0.707l-2.122,2.121C37.735,63.972,37.607,64.021,37.479,64.021z"></path></g><g><path fill="#472b29" d="M49.5,50c-0.276,0-0.5-0.224-0.5-0.5v-6c0-0.276,0.224-0.5,0.5-0.5s0.5,0.224,0.5,0.5v6 C50,49.776,49.776,50,49.5,50z"></path></g>
</svg>
