<svg xmlns="http://www.w3.org/2000/svg" x="0px" y="0px" width="50" height="50" viewBox="0 0 100 100">
<circle cx="77" cy="13" r="1" fill="#f1bc19"></circle><circle cx="50" cy="50" r="37" fill="#e6edb7"></circle><circle cx="83" cy="15" r="4" fill="#f1bc19"></circle><circle cx="87" cy="24" r="2" fill="#9f8066"></circle><circle cx="81" cy="76" r="2" fill="#fbcd59"></circle><circle cx="15" cy="64" r="4" fill="#fbcd59"></circle><circle cx="25" cy="87" r="2" fill="#9f8066"></circle><circle cx="19.5" cy="43.5" r="2.5" fill="#fff"></circle><circle cx="79.5" cy="33.5" r="1.5" fill="#fff"></circle><path fill="#9f8066" d="M32.469,71.831c-1.015,0-1.969-0.396-2.687-1.113s-1.113-1.672-1.113-2.687 s0.396-1.969,1.113-2.687l37.477-37.477c0.718-0.718,1.672-1.113,2.687-1.113c1.015,0,1.969,0.396,2.687,1.113 s1.113,1.672,1.113,2.687s-0.396,1.969-1.113,2.687L35.156,70.718C34.438,71.436,33.484,71.831,32.469,71.831z"></path><path fill="#472b29" d="M69.945,27.455c0.828,0,1.607,0.323,2.192,0.908s0.908,1.364,0.908,2.192 c0,0.828-0.322,1.607-0.908,2.192L46.328,58.556L34.661,70.223c-0.586,0.585-1.364,0.908-2.192,0.908 c-0.828,0-1.607-0.323-2.192-0.908s-0.908-1.364-0.908-2.192s0.322-1.606,0.908-2.192l11.608-11.608l25.868-25.868 C68.339,27.777,69.117,27.455,69.945,27.455 M69.945,26.055c-1.152,0-2.303,0.439-3.182,1.318L40.895,53.241L29.287,64.849 c-1.757,1.757-1.757,4.606,0,6.364c0.879,0.879,2.03,1.318,3.182,1.318s2.303-0.439,3.182-1.318l11.667-11.667l25.809-25.809 c1.757-1.757,1.757-4.607,0-6.364h0C72.249,26.494,71.097,26.055,69.945,26.055L69.945,26.055z"></path><path fill="#472b29" d="M59.791,38.838c-0.064,0-0.128-0.024-0.177-0.073c-0.098-0.098-0.098-0.256,0-0.354l8.623-8.623 c0.682-0.681,1.792-0.682,2.475,0c0.098,0.098,0.098,0.256,0,0.354s-0.256,0.098-0.354,0c-0.488-0.487-1.281-0.487-1.768,0 l-8.623,8.623C59.918,38.813,59.854,38.838,59.791,38.838z"></path><path fill="#472b29" d="M49.498,49.131c-0.064,0-0.128-0.024-0.177-0.073c-0.098-0.098-0.098-0.256,0-0.354l8.662-8.662 c0.098-0.098,0.256-0.098,0.354,0s0.098,0.256,0,0.354l-8.662,8.662C49.626,49.106,49.562,49.131,49.498,49.131z"></path><path fill="#472b29" d="M45.314,53.314c-0.064,0-0.128-0.024-0.177-0.073c-0.098-0.098-0.098-0.256,0-0.354l2.77-2.77 c0.098-0.098,0.256-0.098,0.354,0s0.098,0.256,0,0.354l-2.77,2.77C45.442,53.29,45.378,53.314,45.314,53.314z"></path><path fill="#9f8066" d="M48.025,61.553c-0.348,0-0.674-0.135-0.919-0.381l-7.778-7.778 c-0.246-0.245-0.381-0.571-0.381-0.919c0-0.347,0.135-0.674,0.381-0.919c0.246-0.246,0.572-0.381,0.919-0.381 c0.347,0,0.673,0.135,0.919,0.381l7.778,7.778c0.506,0.507,0.506,1.331,0,1.838C48.699,61.418,48.373,61.553,48.025,61.553z"></path><path fill="#472b29" d="M40.247,51.875c0.093,0,0.271,0.023,0.424,0.176l7.778,7.778c0.153,0.153,0.176,0.331,0.176,0.424 c0,0.093-0.023,0.271-0.176,0.424c-0.153,0.153-0.331,0.176-0.424,0.176c-0.093,0-0.271-0.023-0.424-0.176l-7.778-7.778 c-0.234-0.234-0.234-0.615,0-0.849C39.976,51.898,40.154,51.875,40.247,51.875 M40.247,50.475c-0.512,0-1.024,0.195-1.414,0.586 c-0.781,0.781-0.781,2.048,0,2.829l7.778,7.778c0.391,0.391,0.902,0.586,1.414,0.586s1.024-0.195,1.414-0.586 c0.781-0.781,0.781-2.047,0-2.828l-7.778-7.778C41.271,50.67,40.759,50.475,40.247,50.475L40.247,50.475z"></path><g><path fill="#9f8066" d="M32.469,74.077c-1.391,0-2.698-0.542-3.681-1.525l-0.84-0.839c-2.03-2.03-2.03-5.333,0-7.363 c0.074-0.074,0.173-0.115,0.278-0.115s0.204,0.041,0.279,0.115l7.645,7.646c0.074,0.074,0.116,0.174,0.116,0.278 c0,0.105-0.041,0.204-0.115,0.278C35.167,73.535,33.859,74.077,32.469,74.077z"></path><path fill="#472b29" d="M28.443,64.845h0.005H28.443 M28.233,65.069l7.198,7.198c-0.821,0.718-1.862,1.11-2.963,1.11 c-1.204,0-2.335-0.469-3.186-1.32l-0.84-0.84c-0.851-0.851-1.32-1.983-1.32-3.186C27.123,66.93,27.515,65.89,28.233,65.069 M28.226,63.535c-0.28,0-0.56,0.107-0.773,0.32h0c-2.307,2.306-2.307,6.046,0,8.353l0.84,0.84c1.153,1.153,2.665,1.73,4.176,1.73 s3.023-0.577,4.176-1.73c0.427-0.427,0.427-1.12,0-1.547L29,63.855C28.786,63.641,28.506,63.535,28.226,63.535L28.226,63.535z"></path></g><g><path fill="#472b29" d="M39.54,58.632c-0.128,0-0.256-0.049-0.354-0.146l-1.415-1.414c-0.195-0.195-0.195-0.512,0-0.707 s0.512-0.195,0.707,0l1.415,1.414c0.195,0.195,0.195,0.512,0,0.707C39.796,58.583,39.668,58.632,39.54,58.632z"></path></g><g><path fill="#472b29" d="M43.783,62.874c-0.128,0-0.256-0.049-0.354-0.146l-2.829-2.828c-0.195-0.195-0.195-0.512,0-0.707 s0.512-0.195,0.707,0l2.829,2.828c0.195,0.195,0.195,0.512,0,0.707C44.039,62.825,43.911,62.874,43.783,62.874z"></path></g><g><path fill="#472b29" d="M37.418,60.753c-0.128,0-0.256-0.049-0.354-0.146l-1.414-1.414c-0.195-0.195-0.195-0.512,0-0.707 s0.512-0.195,0.707,0l1.414,1.414c0.195,0.195,0.195,0.512,0,0.707C37.674,60.704,37.546,60.753,37.418,60.753z"></path></g><g><path fill="#472b29" d="M41.661,64.996c-0.128,0-0.256-0.049-0.354-0.146l-2.829-2.829c-0.195-0.195-0.195-0.512,0-0.707 s0.512-0.195,0.707,0l2.829,2.829c0.195,0.195,0.195,0.512,0,0.707C41.917,64.947,41.789,64.996,41.661,64.996z"></path></g><g><path fill="#472b29" d="M35.297,62.874c-0.128,0-0.256-0.049-0.354-0.146l-1.415-1.414c-0.195-0.195-0.195-0.512,0-0.707 s0.512-0.195,0.707,0l1.415,1.414c0.195,0.195,0.195,0.512,0,0.707C35.553,62.825,35.425,62.874,35.297,62.874z"></path></g><g><path fill="#472b29" d="M39.54,67.117c-0.128,0-0.256-0.049-0.354-0.146l-2.829-2.828c-0.195-0.195-0.195-0.512,0-0.707 s0.512-0.195,0.707,0l2.829,2.828c0.195,0.195,0.195,0.512,0,0.707C39.796,67.068,39.668,67.117,39.54,67.117z"></path></g><g><path fill="#472b29" d="M33.176,64.996c-0.128,0-0.256-0.049-0.354-0.146l-1.414-1.415c-0.195-0.195-0.195-0.512,0-0.707 s0.512-0.195,0.707,0l1.414,1.415c0.195,0.195,0.195,0.512,0,0.707C33.432,64.947,33.304,64.996,33.176,64.996z"></path></g><g><path fill="#472b29" d="M37.418,69.238c-0.128,0-0.256-0.049-0.354-0.146l-2.828-2.828c-0.195-0.195-0.195-0.512,0-0.707 s0.512-0.195,0.707,0l2.828,2.828c0.195,0.195,0.195,0.512,0,0.707C37.674,69.189,37.546,69.238,37.418,69.238z"></path></g>
</svg>
