<svg xmlns="http://www.w3.org/2000/svg" x="0px" y="0px" width="50" height="50" viewBox="0 0 100 100">
<path fill="#fff" d="M22.064 57.586A0.886 0.886 0 1 0 22.064 59.358000000000004A0.886 0.886 0 1 0 22.064 57.586Z"></path><path fill="#f1bc19" d="M22.559 65.26A0.886 0.886 0 1 0 22.559 67.032A0.886 0.886 0 1 0 22.559 65.26Z"></path><path fill="#c0e5e4" d="M51.599 14.353000000000002A37.445 37.445 0 1 0 51.599 89.243A37.445 37.445 0 1 0 51.599 14.353000000000002Z"></path><path fill="#fbcd59" d="M78.947 76.324A1.884 1.884 0 1 0 78.947 80.092 1.884 1.884 0 1 0 78.947 76.324zM15.786 61.254A4.007 4.007 0 1 0 15.786 69.268 4.007 4.007 0 1 0 15.786 61.254z"></path><path fill="#00a5a5" d="M26.025 87.511A1.884 1.884 0 1 0 26.025 91.279A1.884 1.884 0 1 0 26.025 87.511Z"></path><path fill="#fff" d="M19.528 50.61000000000001A2.541 2.541 0 1 0 19.528 55.692 2.541 2.541 0 1 0 19.528 50.61000000000001zM81.114 32.917A.684.684 0 1 0 81.114 34.285.684.684 0 1 0 81.114 32.917z"></path><path fill="#f1bc19" d="M78.485 13.682A.886.886 0 1 0 78.485 15.453999999999999.886.886 0 1 0 78.485 13.682zM83.926 12.716A4.007 4.007 0 1 0 83.926 20.729999999999997 4.007 4.007 0 1 0 83.926 12.716z"></path><path fill="#00a5a5" d="M87.933 23.909A1.884 1.884 0 1 0 87.933 27.677A1.884 1.884 0 1 0 87.933 23.909Z"></path><path fill="#fff" d="M77.599 30.292A1.796 1.796 0 1 0 77.599 33.884A1.796 1.796 0 1 0 77.599 30.292Z"></path><g><path fill="#f9e65c" d="M51.489,79.3c-0.063,0-0.194-0.042-0.467-0.244c-1.262-0.934-2.527-1.863-3.792-2.793 c-2.827-2.078-5.75-4.227-8.585-6.384c-4.913-3.74-8.091-8.726-9.445-14.817c-0.5-2.257-0.5-3.983-0.5-6.843l0.009-16.613 c0-0.432,0.04-0.545,0.052-0.569c-0.003,0.007,0.002,0.01,0.018,0.01c0.05,0,0.207-0.026,0.558-0.034 c7.256-0.169,13.34-1.979,18.597-5.533c0.902-0.61,1.732-1.317,2.534-2.002l0.666-0.565c0.229-0.19,0.35-0.211,0.392-0.211 c0.09,0,0.21,0.101,0.273,0.16c3.428,3.238,7.612,5.498,12.795,6.907c2.631,0.715,5.113,1.09,7.59,1.145 c0.313,0.007,0.626,0.028,0.939,0.05c0.246,0.017,0.492,0.033,0.738,0.044c0.297,0.014,0.376,0.065,0.381,0.068 c-0.002,0,0.049,0.083,0.049,0.389c0.004,2.623,0.003,9.996,0.003,9.996c-0.007,0.04-0.011,0.081-0.011,0.123 c0,0.93,0.004,1.859,0.008,2.789c0.009,2.074,0.018,4.148-0.018,6.222c-0.093,5.668-2.086,10.893-5.924,15.53 c-1.856,2.242-4.266,4.007-6.597,5.714l-0.356,0.262c-2.208,1.62-4.409,3.247-6.611,4.874l-2.797,2.065 C51.696,79.255,51.556,79.3,51.489,79.3z"></path><path fill="#472b29" d="M51.489,23.528c3.481,3.235,7.711,5.497,12.922,6.914c2.688,0.731,5.226,1.114,7.758,1.169 c0.303,0.007,0.605,0.028,0.907,0.049c0.172,0.012,0.345,0.023,0.516,0.033c0.004,2.453,0.003,4.905,0.003,7.357l0,2.358 c-0.007,0.057-0.011,0.115-0.011,0.173c0,0.935,0.004,1.869,0.008,2.803c0.009,2.033,0.017,4.136-0.017,6.196 c-0.091,5.506-2.03,10.584-5.764,15.095c-1.8,2.175-4.069,3.837-6.471,5.597l-0.356,0.261c-2.246,1.648-4.486,3.303-6.726,4.958 l-2.682,1.981c-0.031,0.022-0.058,0.042-0.082,0.058c-0.017-0.012-0.035-0.025-0.055-0.04c-1.265-0.936-2.533-1.868-3.801-2.8 c-2.822-2.074-5.741-4.218-8.568-6.371c-4.778-3.638-7.869-8.487-9.185-14.413c-0.484-2.181-0.484-3.878-0.483-6.689l0-0.276 c0.005-3.887,0.006-7.774,0.007-11.661l0.002-4.572c7.372-0.181,13.56-2.03,18.916-5.653c0.935-0.632,1.78-1.353,2.597-2.049 C51.112,23.848,51.301,23.687,51.489,23.528 M51.527,22c-0.27,0-0.548,0.129-0.842,0.375c-1.029,0.862-2.03,1.771-3.143,2.523 c-5.467,3.697-11.626,5.26-18.221,5.414c-1.107,0.025-1.311,0.214-1.311,1.293c-0.003,5.444-0.003,10.891-0.009,16.336 c0,3.058-0.017,4.866,0.517,7.271c1.376,6.193,4.563,11.309,9.704,15.223c4.087,3.112,8.254,6.126,12.385,9.183 C50.949,79.873,51.218,80,51.49,80c0.277,0,0.555-0.133,0.916-0.398c3.135-2.314,6.264-4.633,9.406-6.938 c2.524-1.852,5.073-3.671,7.078-6.094c3.865-4.668,5.986-9.96,6.086-15.964c0.05-3.006,0.009-6.014,0.009-9.022 c0.003,0,0.007,0,0.011-0.001c0-3.374,0.003-6.746-0.003-10.12c-0.001-0.832-0.294-1.119-1.099-1.155 c-0.566-0.024-1.128-0.082-1.693-0.095c-2.526-0.055-4.998-0.461-7.422-1.121c-4.715-1.282-8.961-3.398-12.497-6.739 C52.03,22.114,51.781,22,51.527,22L51.527,22z"></path></g><g><path fill="#77cbd2" d="M69.987,43.529c0,2.386,0.033,4.771-0.007,7.156c-0.079,4.762-1.749,8.96-4.791,12.662 c-1.578,1.921-3.585,3.364-5.572,4.834c-2.473,1.829-4.936,3.669-7.405,5.503c-0.561,0.417-0.87,0.421-1.417,0.014 c-3.252-2.424-6.532-4.815-9.75-7.283c-4.047-3.105-6.556-7.162-7.64-12.073c-0.421-1.907-0.409-3.835-0.406-5.767 c0.005-4.32,0.005-8.638,0.007-12.958c0-0.856,0.161-1.005,1.033-1.026c5.192-0.122,10.04-1.362,14.344-4.293 c0.875-0.596,1.664-1.316,2.474-2.001c0.449-0.379,0.848-0.408,1.257-0.019c2.785,2.651,6.126,4.329,9.839,5.346 c1.908,0.523,3.854,0.844,5.843,0.889c0.444,0.01,0.887,0.056,1.333,0.075c0.634,0.028,0.865,0.256,0.865,0.916 c0.004,2.675,0.001,5.351,0.001,8.026C69.992,43.529,69.99,43.529,69.987,43.529z"></path></g><g><defs><path id="bkcUPPyf_aF3zO9G1rd_ya" d="M33.029,43.756L33.029,43.756c0-2.654-0.004-5.458,0-8.112c0.001-0.655,0.185-0.961,0.841-0.99 c0.46-0.02,0.918-0.065,1.378-0.075c2.056-0.044,4.106-0.45,6.08-0.967c3.838-1.009,6.858-2.569,9.77-5.122 c0.167-0.146,0.577-0.463,0.743-0.492v46c-0.436-0.068-5.692-4.073-8.249-5.887c-2.055-1.458-4.129-2.889-5.76-4.794 c-3.146-3.672-4.737-7.81-4.816-12.533C32.973,48.422,33.029,46.123,33.029,43.756z"></path></defs><clipPath id="bkcUPPyf_aF3zO9G1rd_yb"><use overflow="visible" xlink:href="#bkcUPPyf_aF3zO9G1rd_ya"></use></clipPath><g clip-path="url(#bkcUPPyf_aF3zO9G1rd_yb)"><path fill="#00a5a5" d="M66.523 47.404L69.905 44.236 41.683 17.81 38.301 20.977zM61.547 56.857L64.929 53.689 36.707 27.261 33.323 30.43zM56.569 66.308L59.953 63.141 31.729 36.714 28.347 39.882zM51.255 76.195L54.639 73.027 26.415 46.601 23.033 49.769z"></path></g></g><g><path fill="#472b29" d="M51.5,74c-0.276,0-0.5-0.224-0.5-0.5v-26c0-0.276,0.224-0.5,0.5-0.5s0.5,0.224,0.5,0.5v26 C52,73.776,51.776,74,51.5,74z"></path></g><g><path fill="#472b29" d="M51.5,40c-0.276,0-0.5-0.224-0.5-0.5v-11c0-0.276,0.224-0.5,0.5-0.5s0.5,0.224,0.5,0.5v11 C52,39.776,51.776,40,51.5,40z"></path></g><g><path fill="#472b29" d="M51.5,45c-0.276,0-0.5-0.224-0.5-0.5v-3c0-0.276,0.224-0.5,0.5-0.5s0.5,0.224,0.5,0.5v3 C52,44.776,51.776,45,51.5,45z"></path></g><g><path fill="#472b29" d="M51.497,28.051c2.89,2.711,6.41,4.603,10.759,5.782c2.213,0.602,4.307,0.917,6.398,0.962 c0.251,0.006,0.502,0.023,0.754,0.041c0.195,0.013,0.391,0.027,0.586,0.036c0.003,1.983,0.002,3.967,0.002,5.95l0,1.382h-0.008v1 c0,0.779,0.003,1.559,0.007,2.338c0.007,1.677,0.015,3.412-0.014,5.112c-0.077,4.593-1.698,8.829-4.82,12.59 c-1.499,1.808-3.382,3.185-5.375,4.642l-0.32,0.234c-1.691,1.238-3.378,2.481-5.065,3.724l-2.743,2.02 c-0.075,0.055-0.129,0.089-0.165,0.111c-0.033-0.02-0.079-0.049-0.141-0.096c-1.046-0.772-2.095-1.54-3.143-2.309 c-2.346-1.72-4.772-3.498-7.122-5.282c-3.996-3.035-6.58-7.079-7.681-12.019c-0.405-1.82-0.405-4.222-0.404-5.657l0-0.142 c0.004-3.616,0.005-7.231,0.006-10.846l0.001-2.677c0-0.024,0-0.046,0-0.067c0.033-0.001,0.07-0.003,0.111-0.004 c6.103-0.141,11.224-1.663,15.655-4.65c0.773-0.521,1.475-1.119,2.154-1.696c0.179-0.152,0.357-0.304,0.535-0.453 C51.475,28.068,51.487,28.06,51.497,28.051 M51.522,27c-0.225,0-0.455,0.107-0.699,0.311c-0.854,0.714-1.685,1.466-2.608,2.088 c-4.536,3.058-9.647,4.353-15.119,4.479c-0.919,0.021-1.088,0.178-1.088,1.071c-0.001,4.507-0.001,9.014-0.007,13.521 c0,1.486-0.015,4.027,0.428,6.018c1.142,5.125,3.787,9.358,8.053,12.598c3.391,2.575,6.848,5.069,10.277,7.599 C51.043,74.895,51.267,75,51.492,75c0.23,0,0.461-0.11,0.76-0.33c2.602-1.914,5.199-3.834,7.805-5.743 c2.094-1.534,4.21-3.039,5.873-5.044c3.206-3.863,4.967-8.242,5.05-13.212c0.041-2.488,0.007-4.978,0.007-7.467 c0.003,0,0.006,0,0.008,0.001c0-2.791,0.003-5.583-0.001-8.375c0-0.689-0.243-0.926-0.912-0.956 c-0.47-0.02-0.936-0.068-1.405-0.079c-2.097-0.046-4.148-0.381-6.159-0.928c-3.913-1.061-7.435-2.813-10.37-5.578 C51.939,27.094,51.733,27,51.522,27L51.522,27z"></path></g>
</svg>
