<svg xmlns="http://www.w3.org/2000/svg" x="0px" y="0px" width="50" height="50" viewBox="0 0 100 100">
<circle cx="13" cy="29" r="2" fill="#ee3e54"></circle><circle cx="77" cy="13" r="1" fill="#f1bc19"></circle><circle cx="50" cy="50" r="37" fill="#fce0a2"></circle><circle cx="83" cy="15" r="4" fill="#f1bc19"></circle><circle cx="87" cy="24" r="2" fill="#ee3e54"></circle><circle cx="81" cy="76" r="2" fill="#fbcd59"></circle><circle cx="15" cy="63" r="4" fill="#fbcd59"></circle><circle cx="25" cy="87" r="2" fill="#ee3e54"></circle><circle cx="18.5" cy="48.5" r="2.5" fill="#fff"></circle><circle cx="21" cy="67" r="1" fill="#f1bc19"></circle><path fill="#e1e0d8" d="M52.099,40.743c0.015-0.107,0.026-0.181,0.026-0.181S54.38,40.007,54,39.5c0,0,4-11,11-11 c5,0,6,7,6,11c0,5.667-1.875,11.958-2.458,14.417C67.333,58.542,68,63.5,68,63.5c-2-1-4-3-4.905-4.52 C62.859,62.6,63.331,65.046,64,67.5C60.5,66,58.5,64,57.5,61c-0.5,2.5-0.354,4.771,0,6c0,0,0-2-3-8s-3-18-3-18L52.099,40.743z"></path><path fill="#472b29" d="M64,68.2c-0.093,0-0.187-0.019-0.275-0.057c-2.735-1.173-4.61-2.646-5.833-4.632 c-0.036,0.774-0.011,1.472,0.054,2.059C58.185,66.479,58.2,66.907,58.2,67c0,0.349-0.257,0.645-0.603,0.693 c-0.336,0.051-0.673-0.163-0.771-0.499c-0.1-0.347-0.188-0.79-0.251-1.31c-0.305-1.134-1.021-3.209-2.702-6.571 C50.835,53.235,50.8,41.497,50.8,41c0-0.28,0.167-0.533,0.425-0.644l0.281-0.12c0.092-0.174,0.254-0.305,0.451-0.354 c0.512-0.127,1.075-0.326,1.349-0.472c0.007-0.051,0.019-0.102,0.036-0.15C53.513,38.793,57.595,27.8,65,27.8 c4.939,0,6.7,6.044,6.7,11.7c0,4.89-1.336,10.1-2.134,13.213c-0.137,0.533-0.255,0.994-0.344,1.365 c-1.164,4.456-0.535,9.28-0.529,9.328c0.035,0.258-0.075,0.513-0.286,0.663c-0.211,0.151-0.486,0.174-0.721,0.057 c-1.474-0.737-2.898-1.949-3.954-3.136c0.015,2.386,0.38,4.259,0.943,6.325c0.07,0.26-0.014,0.536-0.217,0.713 C64.33,68.141,64.166,68.2,64,68.2z M57.5,60.3c0.3,0,0.568,0.191,0.664,0.479c0.798,2.396,2.3,4.115,4.793,5.448 c-0.496-2.163-0.752-4.37-0.561-7.292c0.02-0.306,0.236-0.563,0.534-0.635c0.298-0.065,0.609,0.06,0.766,0.322 c0.641,1.075,1.981,2.539,3.481,3.574c-0.118-1.836-0.163-5.203,0.688-8.456c0.086-0.363,0.206-0.832,0.345-1.375 c0.782-3.049,2.09-8.152,2.09-12.865c0-1.72-0.255-10.3-5.3-10.3c-5.924,0-9.673,8.843-10.261,10.329 c0.013,0.129-0.003,0.262-0.049,0.39c-0.066,0.186-0.26,0.728-2.015,1.223c-0.074,0.106-0.178,0.192-0.301,0.245l-0.17,0.072 c0.039,2.24,0.356,12.098,2.921,17.228c0.619,1.239,1.114,2.313,1.51,3.237c0.047-0.347,0.105-0.701,0.178-1.062 c0.063-0.311,0.326-0.541,0.643-0.561C57.471,60.301,57.485,60.3,57.5,60.3z M52.1,40.743h0.01H52.1z"></path><path fill="#e1e0d8" d="M64.19,54.021C63.682,53.521,63.25,53,63,52.5c-1,2-1,4-1,4s-1.333-1.333-3.667-4.167"></path><path fill="#472b29" d="M62,56.75c-0.065,0-0.129-0.025-0.177-0.073c-0.014-0.014-1.368-1.374-3.684-4.185 c-0.087-0.106-0.072-0.265,0.034-0.353c0.107-0.087,0.265-0.071,0.353,0.034c1.576,1.915,2.702,3.149,3.258,3.74 c0.072-0.755,0.296-2.133,0.992-3.525c0.084-0.17,0.363-0.17,0.447,0c0.215,0.431,0.6,0.92,1.143,1.454 c0.098,0.097,0.1,0.255,0.002,0.354c-0.097,0.097-0.255,0.101-0.354,0.002c-0.415-0.408-0.746-0.797-0.989-1.161 c-0.764,1.772-0.775,3.445-0.775,3.463c0,0.102-0.062,0.192-0.154,0.23C62.064,56.744,62.032,56.75,62,56.75z"></path><path fill="#e1e0d8" d="M67.917,56.833c0,0-0.94-0.56-2.017-1.367"></path><path fill="#472b29" d="M67.917,57.083c-0.044,0-0.088-0.012-0.128-0.035c-0.01-0.006-0.964-0.576-2.039-1.381 c-0.11-0.083-0.133-0.239-0.05-0.351c0.083-0.11,0.239-0.13,0.351-0.05c1.052,0.789,1.984,1.346,1.994,1.352 c0.118,0.07,0.157,0.224,0.087,0.343C68.085,57.039,68.002,57.083,67.917,57.083z"></path><path fill="#472b29" d="M58,36.75c-0.05,0-0.101-0.015-0.144-0.046c-0.113-0.079-0.141-0.235-0.061-0.348 c2.435-3.458,4.733-5.312,6.649-5.359c0.025,0,0.052-0.001,0.078-0.001c0.942,0,1.755,0.429,2.415,1.273 c0.085,0.109,0.065,0.267-0.043,0.352c-0.11,0.083-0.266,0.063-0.352-0.043c-0.561-0.718-1.241-1.082-2.023-1.082 c-0.021,0-0.042,0.001-0.063,0.001c-1.221,0.03-3.297,0.948-6.253,5.146C58.155,36.713,58.078,36.75,58,36.75z"></path><path fill="#472b29" d="M68.394,39.416c-0.137,0-0.248-0.109-0.25-0.247c-0.026-2.007-0.294-3.752-0.774-5.048 c-0.048-0.13,0.018-0.273,0.147-0.321c0.126-0.049,0.273,0.018,0.321,0.147c0.507,1.368,0.778,3.123,0.806,5.216 c0.002,0.138-0.108,0.251-0.247,0.253C68.396,39.416,68.395,39.416,68.394,39.416z"></path><path fill="#472b29" d="M68,44.75c-0.012,0-0.024-0.001-0.037-0.003c-0.136-0.021-0.23-0.147-0.21-0.284 c0.171-1.153,0.288-2.28,0.347-3.349c0.008-0.138,0.122-0.254,0.264-0.236c0.138,0.008,0.243,0.126,0.236,0.264 c-0.061,1.084-0.179,2.226-0.353,3.396C68.229,44.661,68.122,44.75,68,44.75z"></path><path fill="#836f61" d="M49.5,39.234c-3.849,0-5.8-1.648-5.8-4.9c0-5.648,2.006-8.634,5.8-8.634 c3.36,0,5.8,3.631,5.8,8.634C55.3,37.586,53.349,39.234,49.5,39.234z"></path><path fill="#472b29" d="M49.5,26.4c2.907,0,5.1,3.411,5.1,7.935c0,1.039,0,4.2-5.1,4.2s-5.1-3.161-5.1-4.2 C44.4,30.715,45.285,26.4,49.5,26.4 M49.5,25c-3.59,0-6.5,2.489-6.5,9.334c0,4.124,2.91,5.6,6.5,5.6s6.5-1.476,6.5-5.6 C56,28.734,53.09,25,49.5,25L49.5,25z"></path><path fill="#64b5f6" d="M51.349,35h-3.48c-0.877,0-1.68,0.376-2.285,0.993C46.646,37.761,48.056,39,49.609,39 s2.963-1.239,4.025-3.007C53.029,35.376,52.225,35,51.349,35z"></path><path fill="#e1e0d8" d="M46.401,40.743c-0.015-0.107-0.026-0.181-0.026-0.181S44.12,40.007,44.5,39.5c0,0-4-11-11-11 c-5,0-6,7-6,11c0,5.667,1.875,11.958,2.458,14.417C31.167,58.542,30.5,63.5,30.5,63.5c2-1,4-3,4.905-4.52 c0.236,3.62-0.236,6.066-0.905,8.52C38,66,40,64,41,61c0.5,2.5,0.354,4.771,0,6c0,0,0-2,3-8s3-18,3-18L46.401,40.743z"></path><path fill="#472b29" d="M34.5,68.2c-0.166,0-0.33-0.06-0.459-0.172c-0.203-0.177-0.287-0.453-0.217-0.713 c0.563-2.066,0.929-3.939,0.943-6.325c-1.056,1.187-2.48,2.398-3.954,3.136c-0.233,0.115-0.51,0.095-0.72-0.057 c-0.212-0.15-0.322-0.405-0.287-0.662c0.006-0.049,0.632-4.884-0.526-9.314c-0.092-0.387-0.209-0.846-0.346-1.379 C28.136,49.601,26.8,44.391,26.8,39.5c0-5.656,1.761-11.7,6.7-11.7c7.405,0,11.487,10.993,11.658,11.461 c0.018,0.05,0.029,0.1,0.036,0.151c0.273,0.145,0.836,0.345,1.349,0.471c0.197,0.049,0.359,0.18,0.451,0.354l0.281,0.12 C47.533,40.467,47.7,40.72,47.7,41c0,0.497-0.035,12.235-3.074,18.313c-1.682,3.363-2.397,5.439-2.702,6.574 c-0.063,0.519-0.151,0.961-0.251,1.307c-0.098,0.336-0.429,0.545-0.771,0.499C40.557,67.645,40.3,67.349,40.3,67 c0-0.093,0.016-0.521,0.255-1.431c0.064-0.587,0.09-1.283,0.054-2.058c-1.223,1.985-3.098,3.459-5.833,4.632 C34.687,68.182,34.593,68.2,34.5,68.2z M35.405,58.28c0.055,0,0.109,0.007,0.164,0.02c0.298,0.071,0.515,0.329,0.534,0.635 c0.191,2.922-0.064,5.129-0.561,7.292c2.493-1.333,3.995-3.053,4.793-5.448c0.101-0.302,0.396-0.503,0.708-0.477 c0.316,0.02,0.58,0.25,0.643,0.561c0.072,0.361,0.131,0.715,0.178,1.062c0.396-0.925,0.891-1.998,1.51-3.237 c2.564-5.13,2.882-14.987,2.921-17.228l-0.17-0.072c-0.123-0.053-0.227-0.139-0.3-0.245c-1.756-0.494-1.949-1.036-2.016-1.222 c-0.046-0.129-0.062-0.261-0.049-0.391C43.172,38.044,39.416,29.2,33.5,29.2c-5.045,0-5.3,8.58-5.3,10.3 c0,4.714,1.309,9.817,2.09,12.866c0.14,0.542,0.26,1.01,0.349,1.389c0.849,3.242,0.802,6.606,0.684,8.441 c1.5-1.035,2.841-2.499,3.481-3.574C34.932,58.407,35.162,58.28,35.405,58.28z"></path><path fill="#c5def0" d="M62.121,43.5l-7.13-6.926c-1.714-1.064-3.826-1.563-5.233-1.572V35h-0.042h-0.795h-0.042v0.002 c-1.407,0.009-3.519,0.508-5.233,1.572l-7.13,6.926c-1.045,1.026-1.292,3.295,0,4l6.112,2L39.063,75h20.512L56.01,49.5l6.112-2 C63.413,46.795,63.166,44.526,62.121,43.5z"></path><path fill="#472b29" d="M59.575,75.7H39.063c-0.202,0-0.396-0.088-0.528-0.241c-0.133-0.152-0.193-0.355-0.165-0.556 l3.484-24.92l-5.556-1.818c-0.041-0.013-0.08-0.03-0.118-0.051c-0.661-0.361-1.09-1.029-1.209-1.883 c-0.161-1.155,0.263-2.453,1.055-3.23l7.134-6.929c0.035-0.035,0.075-0.066,0.118-0.093c1.97-1.224,4.246-1.668,5.598-1.678 l0.841-0.002c1.4,0.012,3.678,0.458,5.645,1.68c0.043,0.026,0.083,0.058,0.118,0.093l7.13,6.926C62.609,42.999,62.61,43,62.611,43 c0.792,0.777,1.216,2.076,1.056,3.231c-0.119,0.853-0.549,1.521-1.211,1.883c-0.037,0.021-0.076,0.038-0.117,0.051l-5.555,1.818 l3.484,24.92c0.028,0.2-0.032,0.403-0.165,0.556C59.971,75.612,59.777,75.7,59.575,75.7z M39.867,74.3h18.903l-3.454-24.703 c-0.047-0.335,0.153-0.656,0.476-0.762l6.041-1.978c0.301-0.191,0.409-0.548,0.447-0.819c0.098-0.702-0.181-1.578-0.648-2.037 l-7.073-6.871c-1.601-0.974-3.56-1.419-4.806-1.428L48.922,35.7c-1.283,0.01-3.244,0.457-4.843,1.43l-7.076,6.872 c-0.465,0.457-0.743,1.334-0.646,2.037c0.038,0.271,0.146,0.627,0.447,0.819l6.041,1.977c0.322,0.105,0.522,0.426,0.476,0.762 L39.867,74.3z"></path><polygon fill="#e1e0d8" points="51,80.036 49.5,82 48,80.036 48,53 51,53"></polygon><polygon fill="#472b29" points="49.5,82.895 47,79.188 47,52 48,52 48,78.882 49.5,81.105 51,78.882 51,52 52,52 52,79.188"></polygon><path fill="#6d4c41" d="M49.5,42.13L49.5,42.13c-0.828,0-1.5,0.672-1.5,1.5v8.87h3v-8.87C51,42.802,50.328,42.13,49.5,42.13 z"></path><rect width="9" height="1" x="45" y="52" fill="#472b29"></rect><path fill="#472b29" d="M46.5,45h-7c-0.276,0-0.5-0.224-0.5-0.5s0.224-0.5,0.5-0.5h7c0.276,0,0.5,0.224,0.5,0.5 S46.776,45,46.5,45z"></path><path fill="#472b29" d="M46.5,51c-0.276,0-0.5-0.224-0.5-0.5v-6c0-0.276,0.224-0.5,0.5-0.5s0.5,0.224,0.5,0.5v6 C47,50.776,46.776,51,46.5,51z"></path><path fill="#472b29" d="M46.5,51c-0.045,0-0.092-0.006-0.138-0.02l-7-2c-0.266-0.075-0.419-0.353-0.343-0.618 c0.075-0.266,0.35-0.423,0.618-0.343l7,2c0.266,0.075,0.419,0.353,0.343,0.618C46.918,50.857,46.718,51,46.5,51z"></path><g><path fill="#472b29" d="M52.5,51c-0.276,0-0.5-0.224-0.5-0.5v-6c0-0.276,0.224-0.5,0.5-0.5s0.5,0.224,0.5,0.5v6 C53,50.776,52.776,51,52.5,51z"></path></g><g><path fill="#472b29" d="M52.5,51c-0.218,0-0.418-0.143-0.48-0.362c-0.076-0.266,0.077-0.543,0.343-0.618l7-2 c0.267-0.078,0.543,0.077,0.618,0.343c0.076,0.266-0.077,0.543-0.343,0.618l-7,2C52.592,50.994,52.545,51,52.5,51z"></path></g><g><path fill="#472b29" d="M43.5,45c-0.04,0-0.08-0.005-0.121-0.015c-0.269-0.067-0.431-0.339-0.364-0.606l1-4 c0.066-0.269,0.335-0.433,0.606-0.364c0.269,0.067,0.431,0.339,0.364,0.606l-1,4C43.929,44.849,43.725,45,43.5,45z"></path></g><g><path fill="#472b29" d="M55.5,45c-0.225,0-0.429-0.151-0.485-0.379l-1-4c-0.066-0.268,0.096-0.539,0.364-0.606 c0.262-0.069,0.539,0.096,0.606,0.364l1,4c0.066,0.268-0.096,0.539-0.364,0.606C55.581,44.995,55.54,45,55.5,45z"></path></g><g><path fill="#472b29" d="M59.5,45h-7c-0.276,0-0.5-0.224-0.5-0.5s0.224-0.5,0.5-0.5h7c0.276,0,0.5,0.224,0.5,0.5 S59.776,45,59.5,45z"></path></g><g><path fill="#fabf82" d="M46.967,26C46.371,26.523,46,27.327,46,28.5c0,2.43,1.567,5.5,3.5,5.5s3.5-3.07,3.5-5.5 c0-1.173-0.371-1.977-0.967-2.5H46.967z"></path><path fill="#472b29" d="M49.5,34.7c-2.365,0-4.2-3.333-4.2-6.2c0-1.306,0.405-2.323,1.205-3.025l0.198-0.175h5.594 l0.198,0.175c0.8,0.702,1.205,1.72,1.205,3.025C53.7,31.367,51.865,34.7,49.5,34.7z M47.255,26.7 c-0.373,0.424-0.555,1.016-0.555,1.8c0,2.288,1.465,4.8,2.8,4.8s2.8-2.512,2.8-4.8c0-0.784-0.182-1.376-0.555-1.8H47.255z"></path></g><g><path fill="#472b29" d="M49.5,27c-3.46,0-7.5-0.786-7.5-3s4.04-3,7.5-3s7.5,0.786,7.5,3S52.96,27,49.5,27z M44.126,24 c0.575,0.406,2.438,1,5.374,1s4.799-0.594,5.374-1c-0.575-0.406-2.438-1-5.374-1S44.701,23.594,44.126,24z"></path></g><g><path fill="#e1e0d8" d="M34.31,54.021c0.508-0.5,0.94-1.021,1.19-1.521c1,2,1,4,1,4s1.333-1.333,3.667-4.167"></path><path fill="#472b29" d="M36.5,56.75c-0.032,0-0.064-0.006-0.096-0.02c-0.093-0.038-0.154-0.129-0.154-0.23 c0-0.018-0.012-1.69-0.775-3.463c-0.243,0.364-0.574,0.753-0.989,1.161c-0.099,0.099-0.257,0.095-0.354-0.002 c-0.098-0.099-0.096-0.257,0.002-0.354c0.543-0.534,0.928-1.023,1.143-1.454c0.084-0.17,0.363-0.17,0.447,0 c0.696,1.393,0.92,2.771,0.992,3.525c0.556-0.591,1.682-1.825,3.258-3.74c0.088-0.105,0.245-0.121,0.353-0.034 c0.106,0.088,0.121,0.246,0.034,0.353c-2.315,2.811-3.67,4.171-3.684,4.185C36.629,56.725,36.565,56.75,36.5,56.75z"></path></g><g><path fill="#e1e0d8" d="M30.583,56.833c0,0,0.94-0.56,2.017-1.367"></path><path fill="#472b29" d="M30.583,57.083c-0.085,0-0.168-0.044-0.215-0.122c-0.07-0.119-0.031-0.272,0.087-0.343 c0.01-0.006,0.942-0.563,1.994-1.352c0.11-0.08,0.269-0.061,0.351,0.05c0.083,0.111,0.061,0.268-0.05,0.351 c-1.075,0.805-2.029,1.375-2.039,1.381C30.671,57.071,30.627,57.083,30.583,57.083z"></path></g><g><rect width="6" height="4" x="46.5" y="45.5" fill="#fabf82"></rect><path fill="#472b29" d="M53,50h-7v-5h7V50z M47,49h5v-3h-5V49z"></path></g><g><path fill="#472b29" d="M49.5,47.75c-0.138,0-0.25-0.112-0.25-0.25v-2c0-0.138,0.112-0.25,0.25-0.25s0.25,0.112,0.25,0.25v2 C49.75,47.638,49.638,47.75,49.5,47.75z"></path></g><g><path fill="#472b29" d="M49.5,49.75c-0.138,0-0.25-0.112-0.25-0.25v-1c0-0.138,0.112-0.25,0.25-0.25s0.25,0.112,0.25,0.25v1 C49.75,49.638,49.638,49.75,49.5,49.75z"></path></g><g><path fill="#472b29" d="M40.5,36.75c-0.078,0-0.155-0.037-0.204-0.106c-2.956-4.198-5.032-5.116-6.253-5.146 c-0.021,0-0.043-0.001-0.063-0.001c-0.782,0-1.463,0.364-2.023,1.082c-0.086,0.106-0.243,0.126-0.352,0.043 c-0.108-0.085-0.128-0.242-0.043-0.352c0.66-0.845,1.473-1.273,2.415-1.273c0.026,0,0.053,0.001,0.078,0.001 c1.916,0.048,4.215,1.901,6.649,5.359c0.08,0.112,0.053,0.269-0.061,0.348C40.601,36.735,40.55,36.75,40.5,36.75z"></path></g><g><path fill="#472b29" d="M30.106,39.416c-0.001,0-0.002,0-0.003,0c-0.139-0.002-0.249-0.115-0.247-0.253 c0.027-2.093,0.299-3.848,0.806-5.216c0.048-0.13,0.194-0.196,0.321-0.147c0.13,0.048,0.195,0.191,0.147,0.321 c-0.48,1.296-0.748,3.041-0.774,5.048C30.354,39.307,30.243,39.416,30.106,39.416z"></path></g><g><path fill="#472b29" d="M30.5,44.75c-0.122,0-0.229-0.089-0.247-0.213c-0.174-1.17-0.292-2.312-0.353-3.396 c-0.007-0.138,0.099-0.256,0.236-0.264c0.132-0.018,0.255,0.099,0.264,0.236c0.059,1.068,0.176,2.195,0.347,3.349 c0.021,0.137-0.074,0.264-0.21,0.284C30.524,44.749,30.512,44.75,30.5,44.75z"></path></g>
</svg>
